<?xml version="1.0" standalone="no"?>
<!DOCTYPE svg PUBLIC "-//W3C//DTD SVG 1.1//EN" "http://www.w3.org/Graphics/SVG/1.1/DTD/svg11.dtd" >
<svg xmlns="http://www.w3.org/2000/svg">
<metadata>Generated by IcoMoon</metadata>
<defs>
<font id="apock-iconos" horiz-adv-x="1024">
<font-face units-per-em="1024" ascent="960" descent="-64" />
<missing-glyph horiz-adv-x="1024" />
<glyph unicode="&#x20;" horiz-adv-x="512" d="" />
<glyph unicode="&#xe900;" glyph-name="agenda" d="M0 865.178c0 0 75.844 0 75.844 0s0-151.689 0-151.689c0 0-75.844 0-75.844 0s0 151.689 0 151.689zM0 637.645c0 0 75.844 0 75.844 0s0-151.723 0-151.723c0 0-75.844 0-75.844 0s0 151.723 0 151.723zM0 410.078c0 0 75.844 0 75.844 0s0-151.723 0-151.723c0 0-75.844 0-75.844 0s0 151.723 0 151.723zM0 182.511c0 0 75.844 0 75.844 0s0-151.689 0-151.689c0 0-75.844 0-75.844 0s0 151.689 0 151.689zM151.689 941.022c0.102 0 872.243 0 872.311 0 0-0.102 0-985.941 0-986.044-0.068 0-872.209 0-872.311 0 0 0.102 0 985.941 0 986.044zM948.156 30.822c0 0.068 0 834.287 0 834.355-0.068 0-720.521 0-720.589 0 0-0.068 0-834.287 0-834.355 0.068 0 720.521 0 720.589 0zM570.402 411.17c104.96 0 189.645 84.685 189.645 189.645s-84.685 189.611-189.645 189.611c-104.96 0-189.611-84.651-189.611-189.611s84.651-189.645 189.611-189.645zM570.402 487.014c-62.976 0-113.766 50.825-113.766 113.801s50.79 113.766 113.766 113.766c62.976 0 113.766-50.79 113.766-113.766s-50.79-113.801-113.766-113.801zM304.913 107.759c0 0 50.551 0 75.878 0 0.41 14.063 1.57 27.443 3.447 40.004 1.877 12.698 4.471 24.644 7.646 35.908 3.243 11.298 7.031 21.845 11.332 31.744 4.335 9.762 9.216 19.115 14.609 27.819 5.291 8.465 11.127 16.486 17.34 23.927 5.905 7.066 12.595 13.961 19.593 20.173 7.1 6.246 14.165 11.639 21.436 16.521 6.827 4.642 14.711 9.114 22.733 12.971 7.953 3.823 15.735 6.929 23.62 9.455 7.953 2.662 16.009 4.676 23.962 6.144 8.158 1.536 16.077 2.492 23.893 2.901 8.567 0.444 17.306 0.341 26.010-0.375 8.772-0.751 17.579-2.082 26.317-4.096 8.841-2.014 17.545-4.642 26.18-7.851 8.499-3.277 17.101-7.202 25.532-11.844 8.226-4.54 16.452-9.865 24.474-15.838 7.612-5.734 15.462-12.527 22.972-20.070 7.509-7.68 14.404-15.667 20.958-24.337 6.178-8.124 12.629-18.057 18.569-28.843 5.871-10.581 11.025-21.572 15.667-33.348 4.71-11.947 8.875-24.61 12.322-38.059 3.55-13.756 6.383-27.921 8.567-42.906 25.293 0 75.844 0 75.844 0-2.048 19.046-5.12 37.171-9.216 54.886-3.994 17.34-8.943 33.724-14.78 49.22-5.7 15.326-12.22 29.73-19.729 43.691-7.543 14.165-15.94 27.307-24.064 38.161-8.567 11.605-17.749 22.323-27.716 32.734-9.967 10.206-20.514 19.456-30.754 27.307-10.82 8.26-21.948 15.599-33.178 21.948-11.503 6.485-23.245 12.083-34.918 16.691-11.878 4.676-23.859 8.431-36.079 11.435-12.151 2.935-24.337 5.018-36.557 6.246-12.186 1.195-24.371 1.604-36.42 1.092-11.196-0.444-22.426-1.673-33.894-3.686-11.23-2.014-22.391-4.779-33.417-8.397-10.889-3.55-21.675-7.817-32.495-13.141-11.025-5.291-21.777-11.469-31.061-17.852-9.899-6.69-19.456-14.165-29.116-22.63-9.455-8.499-18.569-17.886-26.624-27.477-8.431-10.035-16.418-20.89-23.689-32.256-7.373-11.708-14.199-24.132-20.207-37.137-6.11-13.21-11.503-27.136-16.282-42.018-4.71-14.814-8.67-30.413-11.844-46.933-3.14-16.452-5.461-33.758-6.861-51.883z" />
<glyph unicode="&#xe901;" glyph-name="alerta" d="M1024-24.61c-0.034 0.068-511.966 945.152-512 945.22-0.034-0.068-511.966-945.152-512-945.22 0.102 0 1023.898 0 1024 0zM889.515 54.17c-0.102 0-757.316 0-757.385 0 0.034 0.068 379.836 708.813 379.87 708.915 0.034-0.102 377.446-708.847 377.515-708.915zM472.61 566.17c0 0 78.78 0 78.78 0 0-0.068 0-275.661 0-275.695 0 0-78.78 0-78.78 0 0 0.034 0 275.627 0 275.695zM472.61 211.695c0 0 78.78 0 78.78 0s0-78.78 0-78.78c0 0-78.78 0-78.78 0s0 78.78 0 78.78z" />
<glyph unicode="&#xe902;" glyph-name="bajar" d="M648.738 489.984c0-26.214 0-52.429 0-78.643 0.034 0 341.777 0 341.811 0 0 0 98.099 163.089-18.33 288.973-75.981 82.193-184.934 38.571-184.969 38.571-0.034 0.034-22.665 190.635-186.743 221.116-163.499 30.379-245.794-136.567-245.794-136.567-0.034 0-73.762 39.185-137.387 2.628-67.721-38.81-70.315-128.137-70.315-128.171-0.034 0-71.236-0.512-109.875-59.665-70.11-107.349-3.686-226.85-3.686-226.884 0.034 0 375.979 0 376.013 0 0 26.214 0 52.429 0 78.643-0.034 0-311.706-0.171-311.74-0.171 0 0-26.624 55.159 8.704 98.27 40.687 49.664 109.568 30.106 109.568 30.106 0 0.034-26.829 95.334 36.625 136.329 63.147 40.858 138.786-22.323 138.786-22.323 0.034 0.034 57.037 174.49 197.393 149.060 157.867-28.638 142.916-238.626 142.916-238.66 0.034 0 107.383 76.39 187.836-0.41 65.263-62.327 13.21-151.825 13.21-151.825-0.034 0-283.989-0.375-284.023-0.375zM471.586 75.81c0 0-186.436 186.47-186.436 186.47s-93.184 0-93.184 0c0.034-0.034 326.212-326.246 326.246-326.281 0.034 0.034 326.246 326.246 326.281 326.281 0 0-93.218 0-93.218 0s-186.436-186.47-186.436-186.47c0 0.068 0 541.252 0 541.321 0 0-93.252 0-93.252 0s0-541.252 0-541.321z" />
<glyph unicode="&#xe903;" glyph-name="biblioteca" d="M0 585.83c0.034 0.068 511.966 354.441 512 354.475 0.034-0.034 511.966-354.406 512-354.475-0.102 0-1023.898 0-1024 0zM0-44.305c0.102 0 1023.898 0 1024 0 0 0 0 78.78 0 78.78s-118.17 0-118.17 0c0 0.034 0 393.967 0 394.001 0 0 39.39-0.171 39.39-0.171s0 78.78 0 78.78c0 0-157.525 0-157.525 0s0-78.78 0-78.78c0 0 39.39 0 39.39 0 0-0.034 0-393.796 0-393.83 0 0-157.559 0-157.559 0 0 0.034 0 393.967 0 394.001 0 0 39.39-0.171 39.39-0.171s0 78.78 0 78.78c0 0-157.525 0-157.525 0s0-78.78 0-78.78c0 0 39.39 0.171 39.39 0.171 0-0.034 0-393.967 0-394.001 0 0-157.559 0-157.559 0 0 0.034 0 393.796 0 393.83 0 0 39.39 0 39.39 0s0 78.78 0 78.78c0 0-157.525 0-157.525 0s0-78.78 0-78.78c0 0 39.39 0 39.39 0 0-0.034 0-393.796 0-393.83 0 0-157.559 0-157.559 0 0 0.034 0 393.967 0 394.001 0 0 39.39-0.171 39.39-0.171s0 78.78 0 78.78c0 0-157.525 0-157.525 0s0-78.78 0-78.78c0 0 39.39 0.171 39.39 0.171 0-0.034 0-393.967 0-394.001 0 0-118.17 0-118.17 0s0-78.78 0-78.78z" />
<glyph unicode="&#xe904;" glyph-name="bloqueado" d="M512-64c293.513 0 512 238.387 512 512s-218.487 512-512 512c-293.513 0-512-238.387-512-512s218.487-512 512-512zM73.148 448c0 234.53 187.29 438.852 438.852 438.852 100.659 0 190.976-32.7 263.714-87.313-199.851-211.524-399.735-422.946-599.586-634.47-65.058 77.995-102.98 177.391-102.98 282.931zM950.852 448c0-234.53-187.29-438.852-438.852-438.852-110.694 0-208.93 39.561-285.15 104.516 201.148 212.343 402.33 424.687 603.511 637.030 75.162-79.258 120.491-187.324 120.491-302.694z" />
<glyph unicode="&#xe905;" glyph-name="buscar" d="M424.789 362.871c118.409-115.166 306.756-112.606 421.99 5.769 115.166 118.306 112.606 306.722-5.769 421.922-118.374 115.166-306.79 112.606-421.956-5.734-115.2-118.374-112.64-306.79 5.734-421.956zM68.881-64c0 0-61.099 59.426-61.099 59.46 0.034 0 219.204 225.007 328.772 337.545-3.004 3.652-6.076 7.475-9.011 11.366-11.401 14.882-21.538 30.379-30.413 46.421-8.943 16.145-16.589 32.563-23.006 49.391-6.315 16.691-11.571 34.031-15.599 51.644-3.857 17.203-6.622 35.021-8.192 52.941-1.468 17.033-1.741 35.294-0.717 53.487 1.126 18.295 3.345 35.806 6.724 53.18 3.072 16.316 7.987 34.338 14.199 51.985 6.076 17.442 13.244 33.963 21.641 50.039 8.465 16.35 18.159 32.051 29.116 47.241 11.23 15.462 23.313 29.867 36.659 43.554 13.483 13.858 27.716 26.487 42.598 37.82 14.916 11.435 30.447 21.538 46.421 30.447 16.145 8.909 32.563 16.521 49.391 23.006 16.691 6.315 34.031 11.571 51.644 15.599 17.203 3.857 35.021 6.622 52.941 8.158 17.101 1.468 35.294 1.741 53.487 0.717 18.295-1.161 35.806-3.311 53.146-6.69 16.35-3.072 34.372-7.987 52.019-14.199 17.476-6.11 33.963-13.244 50.039-21.641 16.316-8.499 32.119-18.227 47.241-29.184 15.462-11.196 29.867-23.313 43.588-36.591 13.824-13.483 26.453-27.75 37.82-42.598 11.401-14.916 21.538-30.447 30.413-46.421 8.943-16.145 16.555-32.597 23.006-49.459 6.315-16.657 11.537-33.963 15.599-51.61 3.823-17.237 6.622-34.987 8.158-52.941 1.468-17.067 1.741-35.294 0.751-53.453-1.195-18.295-3.379-35.806-6.724-53.146-3.072-16.384-7.987-34.372-14.199-52.019-6.11-17.476-13.244-34.031-21.675-50.039-8.431-16.35-18.159-32.119-29.15-47.241-11.162-15.462-23.279-29.935-36.625-43.622-13.449-13.824-27.75-26.453-42.564-37.786-14.916-11.401-30.447-21.538-46.421-30.447-16.145-8.909-32.563-16.521-49.459-22.972-16.657-6.315-33.963-11.605-51.575-15.599-17.271-3.891-35.021-6.656-52.975-8.192-17.067-1.434-35.26-1.741-53.453-0.717-18.295 1.161-35.806 3.311-53.18 6.724-16.316 3.072-34.338 7.919-51.985 14.165-17.476 6.144-33.997 13.278-50.039 21.675-16.35 8.465-32.119 18.159-47.241 29.116-4.028 2.97-11.639 8.806-11.639 8.806-109.466-112.674-328.397-337.886-328.431-337.92z" />
<glyph unicode="&#xe906;" glyph-name="calendario" d="M1024 14.78c0 0.068 0 866.372 0 866.441-0.102 0-1023.898 0-1024 0 0-0.068 0-866.372 0-866.441 0.102 0 1023.898 0 1024 0zM945.22 93.525c-0.068 0-866.372 0-866.441 0 0 0.068 0 590.711 0 590.78 0.068 0 866.372 0 866.441 0 0-0.068 0-590.711 0-590.78zM236.305 763.085c0 0-157.525 0-157.525 0s0 39.39 0 39.39c0 0 157.525 0 157.525 0s0-39.39 0-39.39zM787.695 763.085c0 0 0 39.39 0 39.39s157.525 0 157.525 0c0 0 0-39.39 0-39.39s-157.525 0-157.525 0zM157.525 566.17c0 0 118.17 0 118.17 0s0-78.78 0-78.78c0 0-118.17 0-118.17 0s0 78.78 0 78.78zM157.525 408.61c0 0 118.17 0 118.17 0s0-78.78 0-78.78c0 0-118.17 0-118.17 0s0 78.78 0 78.78zM157.525 251.085c0 0 118.17 0 118.17 0s0-78.78 0-78.78c0 0-118.17 0-118.17 0s0 78.78 0 78.78zM354.475 251.085c0 0 118.135 0 118.135 0s0-78.78 0-78.78c0 0-118.135 0-118.135 0s0 78.78 0 78.78zM354.475 408.61c0 0 118.135 0 118.135 0s0-78.78 0-78.78c0 0-118.135 0-118.135 0s0 78.78 0 78.78zM354.475 566.17c0 0 118.135 0 118.135 0s0-78.78 0-78.78c0 0-118.135 0-118.135 0s0 78.78 0 78.78zM551.39 566.17c0 0 118.135 0 118.135 0s0-78.78 0-78.78c0 0-118.135 0-118.135 0s0 78.78 0 78.78zM551.39 408.61c0 0 118.135 0 118.135 0s0-78.78 0-78.78c0 0-118.135 0-118.135 0s0 78.78 0 78.78zM551.39 251.085c0 0 118.135 0 118.135 0s0-78.78 0-78.78c0 0-118.135 0-118.135 0s0 78.78 0 78.78zM748.305 408.61c0 0 118.17 0 118.17 0s0-78.78 0-78.78c0 0-118.17 0-118.17 0s0 78.78 0 78.78zM748.305 566.17c0 0 118.17 0 118.17 0s0-78.78 0-78.78c0 0-118.17 0-118.17 0s0 78.78 0 78.78z" />
<glyph unicode="&#xe907;" glyph-name="candado" d="M54.852-64c0 0.068 0 621.636 0 621.705 0 0 41.574 0 73.079 0 0.034 228.045 176.265 402.33 384.068 402.295 207.735-0.034 383.932-174.285 383.898-402.295 32.973 0 73.25 0 73.25 0 0-0.068 0-621.636 0-621.705-0.068 0-914.193 0-914.295 0zM128 9.148c0.068 0 767.932 0 768 0 0 0.034 0 475.375 0 475.409-0.068 0-767.932 0-768 0 0-0.034 0-475.375 0-475.409zM200.841 557.705c189.679 0 449.263 0 621.636 0 0.137 187.529-143.223 329.045-310.477 329.148-167.424 0.102-311.091-141.449-311.159-329.148zM457.148 274.091c0-63.966 0-191.761 0-191.795 0 0 73.148 0 73.148 0 0 0.034 0 128.546 0 192.819 5.291 2.697 10.684 6.793 15.155 11.435 6.451 6.656 11.947 14.37 15.667 23.211 3.686 8.67 5.734 18.364 5.734 28.535 0 10.103-2.048 19.729-5.734 28.501-3.652 8.67-8.943 16.486-15.667 23.245-6.485 6.588-14.37 11.913-23.211 15.633-8.67 3.721-18.364 5.769-28.535 5.769-10.103 0-19.729-2.048-28.501-5.769-8.67-3.652-16.486-8.909-23.245-15.633-6.588-6.519-11.913-14.37-15.633-23.245-3.721-8.636-5.769-18.33-5.769-28.501 0-10.138 2.048-19.763 5.769-28.535 3.652-8.67 9.114-16.282 15.633-23.211 4.471-4.813 9.557-9.114 15.189-12.459z" />
<glyph unicode="&#xe908;" glyph-name="carrito" d="M0 861.525c0 0 118.17 0 118.17 0s0-669.457 0-669.525c0.068 0 905.762 0 905.83 0 0 0 0 78.78 0 78.78-0.068 0-826.982 0-827.085 0 0 0 0 118.135 0 118.135 0.102 0 827.017 0 827.085 0 0 0.034 0 393.83 0 393.865-0.068 0-826.982-1.297-827.085-1.297 0 0.034 0 158.822 0 158.822s-196.915 0-196.915 0c0 0 0-78.78 0-78.78zM945.22 704c0-0.034 0-236.271 0-236.305-0.068-0.034-748.203 0-748.305 0 0 0.034 0 236.271 0 236.305 0.102 0 748.237 0 748.305 0zM945.22 113.22c43.622 0 78.78-35.157 78.78-78.746 0-43.622-35.157-78.78-78.78-78.78-43.588 0-78.746 35.157-78.746 78.78 0 43.588 35.157 78.746 78.746 78.746zM196.915 113.22c43.622 0 78.78-35.157 78.78-78.746 0-43.622-35.157-78.78-78.78-78.78-43.588 0-78.746 35.157-78.746 78.78 0 43.588 35.157 78.746 78.746 78.746z" />
<glyph unicode="&#xe909;" glyph-name="carta" d="M1024 54.17c0 0.068 0 787.593 0 787.661-0.102 0-1023.898 0-1024 0 0-0.068 0-787.593 0-787.661 0.102 0 1023.898 0 1024 0zM945.22 132.915c-0.068 0-866.372 0-866.441 0 0 0.102 0 630.067 0 630.17 144.418-105.062 433.186-315.051 433.22-315.085 0.034 0.034 288.802 210.022 433.22 315.085 0-0.102 0-630.067 0-630.17zM826.914 763.085c-104.96-75.298-314.88-225.826-314.914-225.894-0.034 0.068-209.954 150.596-314.914 225.894 193.57 0 458.991 0 629.828 0z" />
<glyph unicode="&#xe90a;" glyph-name="casa" d="M590.848 6.656c-0.034 118.17-0.068 354.406-0.068 354.475 0 0-157.559 0-157.559 0 0-0.068 0.034-236.305 0.102-354.475-0.068 0-316.416 0-316.484 0 0 0.034-0.375 513.809-0.375 513.843 0 0-116.463-80.623-116.463-80.623s0 94.959 0 94.993c0 0 511.966 354.441 512 354.475 0.034-0.034 511.966-354.475 512-354.475 0 0 0-94.993 0-94.993s-78.507 54.374-116.463 80.623c-0.034-171.281-0.068-513.809-0.068-513.843-0.034 0-212.173 0-316.621 0zM354.202 85.436c0.068 118.135 0.273 354.406 0.273 354.441 0.034 0 315.017 0 315.051 0 0-0.034-0.068-236.305-0.102-354.441 53.589 0 157.662 0 157.662 0 0 0.034-0.375 327.441-0.546 491.145-121.856 84.378-314.505 217.737-314.539 217.771-0.034-0.034-209.681-146.057-314.607-219.102 0-0.034-0.478-489.779-0.478-489.813 0 0 157.286 0 157.286 0z" />
<glyph unicode="&#xe90b;" glyph-name="circulo-aba" d="M227.84 519.748c0 0.034 51.78 51.644 51.78 51.644 0.034 0 232.346-233.062 232.38-233.097 0.034 0.034 233.097 232.311 233.097 232.38 0-0.068 51.644-51.849 51.644-51.849 0-0.034-284.877-283.989-284.911-283.955 0-0.034-283.955 284.877-283.989 284.877zM1024 448c0 283.409-228.591 512-512 512s-512-228.591-512-512c0-283.409 228.591-512 512-512s512 228.591 512 512zM950.852 448c0-242.893-195.959-438.852-438.852-438.852s-438.852 195.959-438.852 438.852c0 242.893 195.959 438.852 438.852 438.852s438.852-195.959 438.852-438.852z" />
<glyph unicode="&#xe90c;" glyph-name="circulo-arr" d="M227.84 376.252c0-0.034 51.78-51.644 51.78-51.644 0.034 0 232.346 233.062 232.38 233.097 0.034-0.034 233.097-232.311 233.097-232.38 0 0.068 51.644 51.849 51.644 51.849 0 0.034-284.877 283.989-284.911 283.955 0 0.034-283.955-284.877-283.989-284.877zM1024 448c0-283.409-228.591-512-512-512s-512 228.591-512 512c0 283.409 228.591 512 512 512s512-228.591 512-512zM950.852 448c0 242.893-195.959 438.852-438.852 438.852s-438.852-195.959-438.852-438.852c0-242.893 195.959-438.852 438.852-438.852s438.852 195.959 438.852 438.852z" />
<glyph unicode="&#xe90d;" glyph-name="circulo-der" d="M440.252 732.16c-0.034 0-51.644-51.78-51.644-51.78 0-0.034 233.062-232.346 233.097-232.38-0.034-0.034-232.311-233.097-232.38-233.097 0.068 0 51.849-51.644 51.849-51.644 0.034 0 283.989 284.877 283.955 284.911 0.034 0-284.877 283.955-284.877 283.989zM512-64c-283.409 0-512 228.591-512 512s228.591 512 512 512c283.409 0 512-228.591 512-512s-228.591-512-512-512zM512 9.148c242.893 0 438.852 195.959 438.852 438.852s-195.959 438.852-438.852 438.852c-242.893 0-438.852-195.959-438.852-438.852s195.959-438.852 438.852-438.852z" />
<glyph unicode="&#xe90e;" glyph-name="circulo-izq" d="M583.748 732.16c0.034 0 51.644-51.78 51.644-51.78 0-0.034-233.062-232.346-233.097-232.38 0.034-0.034 232.311-233.097 232.38-233.097-0.068 0-51.849-51.644-51.849-51.644-0.034 0-283.989 284.877-283.955 284.911-0.034 0 284.877 283.955 284.877 283.989zM512-64c283.409 0 512 228.591 512 512s-228.591 512-512 512c-283.409 0-512-228.591-512-512s228.591-512 512-512zM512 9.148c-242.893 0-438.852 195.959-438.852 438.852s195.959 438.852 438.852 438.852c242.893 0 438.852-195.959 438.852-438.852s-195.959-438.852-438.852-438.852z" />
<glyph unicode="&#xe90f;" glyph-name="circulo-nomarcado" d="M512-64c283.375 0 512 228.625 512 512s-228.625 512-512 512c-283.375 0-512-228.625-512-512s228.625-512 512-512zM512 14.78c-230.912 0-433.22 184.183-433.22 433.22s202.308 433.22 433.22 433.22c230.912 0 433.22-184.183 433.22-433.22s-202.308-433.22-433.22-433.22z" />
<glyph unicode="&#xe910;" glyph-name="codigo" d="M393.83 566.17c0 0.034 0 393.796 0 393.83-0.034 0-393.796 0-393.83 0 0-0.034 0-393.796 0-393.83 0.034 0 393.796 0 393.83 0zM315.085 644.915c-0.034 0-236.271 0-236.305 0 0 0.034 0 236.271 0 236.305 0.034 0 236.271 0 236.305 0 0-0.034 0-236.271 0-236.305zM157.525 802.475c0 0 78.78 0 78.78 0s0-78.78 0-78.78c0 0-78.78 0-78.78 0s0 78.78 0 78.78zM433.22 881.22c0 0 157.559 0 157.559 0s0 78.78 0 78.78c0 0-157.559 0-157.559 0s0-78.78 0-78.78zM1024 566.17c0 0.034 0 393.796 0 393.83-0.034 0-393.796 0-393.83 0 0-0.034 0-393.796 0-393.83 0.034 0 393.796 0 393.83 0zM945.22 644.915c-0.034 0-236.271 0-236.305 0 0 0.034 0 236.271 0 236.305 0.034 0 236.271 0 236.305 0 0-0.034 0-236.271 0-236.305zM787.695 802.475c0 0 78.78 0 78.78 0s0-78.78 0-78.78c0 0-78.78 0-78.78 0s0 78.78 0 78.78zM590.78 566.17c0 0-157.559 0-157.559 0s0 196.881 0 196.915c0 0 78.78 0 78.78 0s0 78.746 0 78.746c0 0 78.78 0 78.78 0s0-157.525 0-157.525c0 0-78.78 0-78.78 0s0-39.39 0-39.39c0 0 78.78 0 78.78 0s0-78.746 0-78.746zM433.22 526.78c0 0 78.78 0 78.78 0s0-78.78 0-78.78c0 0 78.78 0 78.78 0s0 78.78 0 78.78c0 0 78.746 0 78.746 0s0-78.78 0-78.78c0 0 78.78 0 78.78 0s0 78.78 0 78.78c0 0 78.78 0 78.78 0 0-0.034 0-196.949 0-196.949s-78.78 0-78.78 0c0 0 0 39.39 0 39.39-0.034 0-236.271 0-236.305 0 0 0 0-118.135 0-118.135s78.78 0 78.78 0c0 0 0-157.559 0-157.559s-78.78 0-78.78 0c0 0 0 78.78 0 78.78s-78.78 0-78.78 0c0 0 0 354.441 0 354.475zM905.83 448c0 0 0 78.78 0 78.78s118.17 0 118.17 0c0 0 0-78.78 0-78.78s-118.17 0-118.17 0zM905.83 329.83c0 0 0 78.78 0 78.78s118.17 0 118.17 0c0 0 0-78.78 0-78.78s-118.17 0-118.17 0zM827.085 93.525c0 0 0 157.559 0 157.559 0.034 0 196.915 0 196.915 0s0-157.559 0-157.559c0 0-196.881 0-196.915 0zM669.525 93.525c0 0 0 157.559 0 157.559s78.78 0 78.78 0c0 0 0-157.559 0-157.559s-78.78 0-78.78 0zM433.22 14.78c0.034 0 393.83 0 393.865 0 0 0 0-78.78 0-78.78-0.034 0-393.83 0-393.865 0 0 0 0 78.78 0 78.78zM905.83 14.78c0 0 118.17 0 118.17 0s0-78.78 0-78.78c0 0-118.17 0-118.17 0s0 78.78 0 78.78zM393.83-64c0 0.034 0 393.796 0 393.83-0.034 0-393.796 0-393.83 0 0-0.034 0-393.796 0-393.83 0.034 0 393.796 0 393.83 0zM315.085 14.78c-0.034 0-236.271 0-236.305 0 0 0.034 0 236.271 0 236.305 0.034 0 236.271 0 236.305 0 0-0.034 0-236.271 0-236.305zM157.525 172.305c0 0 78.78 0 78.78 0s0-78.78 0-78.78c0 0-78.78 0-78.78 0s0 78.78 0 78.78zM393.83 448c0 0 0 78.78 0 78.78s-196.915 0-196.915 0c0 0 0-78.78 0-78.78s-78.746 0-78.746 0c0 0 0 78.78 0 78.78s-78.78 0-78.78 0c0 0 0-78.78 0-78.78s-39.39 0-39.39 0c0 0 0-78.78 0-78.78 0.034 0 275.661 0 275.695 0 0 0 0 78.78 0 78.78s118.135 0 118.135 0z" />
<glyph unicode="&#xe911;" glyph-name="compartir" d="M305.835 542.379c114.449 66.048 343.245 198.144 343.279 198.178-2.287 7.407-4.198 14.882-5.461 22.391-1.092 6.827-1.604 13.687-1.775 20.514-0.239 6.895 0 13.687 0.58 20.412 0.614 6.622 1.604 13.346 2.97 20.036 1.365 6.485 3.14 13.039 5.257 19.456 2.014 6.144 4.608 12.527 7.509 18.739 3.004 6.246 6.178 12.117 9.728 17.783 3.243 5.359 7.373 11.093 11.844 16.589 4.369 5.461 8.943 10.479 13.858 15.223 4.983 4.847 10.308 9.387 15.974 13.619 5.734 4.335 11.605 8.226 17.818 11.844 7.509 4.335 15.155 8.021 22.938 11.093s15.667 5.53 23.654 7.407c8.021 1.877 16.009 3.174 24.030 3.891 7.953 0.717 16.043 0.819 24.098 0.444 7.885-0.444 15.838-1.399 23.791-2.901 7.509-1.468 15.394-3.584 23.040-6.212 7.714-2.731 15.019-5.803 22.050-9.353 6.69-3.311 13.824-7.578 20.651-12.425 6.758-4.71 12.971-9.83 18.91-15.394 5.973-5.632 11.571-11.708 16.759-18.261 5.257-6.69 10.001-13.687 14.302-21.060 4.301-7.475 7.987-15.121 11.059-22.903 3.072-7.817 5.564-15.701 7.441-23.654 1.843-8.021 3.14-16.043 3.857-24.064 0.717-7.919 0.887-16.009 0.478-24.098-0.478-7.885-1.399-15.838-2.935-23.723-1.434-7.543-3.516-15.394-6.178-23.108-2.697-7.714-5.803-14.985-9.353-22.016-3.311-6.69-7.578-13.824-12.425-20.685-4.745-6.758-9.83-12.971-15.394-18.842-5.598-6.007-11.708-11.605-18.261-16.794-6.724-5.291-13.653-10.035-21.060-14.268-6.281-3.652-12.698-6.827-19.183-9.557-6.519-2.799-13.107-5.12-19.763-6.997-6.724-1.877-13.346-3.379-20.105-4.471-6.656-1.024-13.449-1.707-20.241-1.946-6.656-0.239-13.483-0.102-20.207 0.41-6.417 0.512-13.244 1.468-19.934 2.833-6.758 1.365-13.141 3.072-19.456 5.086-5.905 1.911-12.425 4.437-18.739 7.373-6.246 2.901-12.117 6.042-17.818 9.523-5.837 3.55-11.366 7.475-16.725 11.708-5.461 4.335-10.513 8.875-15.36 13.756-114.415-66.082-228.796-132.164-343.177-198.281 1.911-6.724 3.447-13.483 4.54-20.275s1.775-13.653 2.048-20.446c0.205-6.895-0.034-13.619-0.478-20.378-0.375-6.178-1.877-18.705-1.877-18.705 119.091-57.105 357.376-171.315 357.41-171.349 4.403 5.222 9.114 10.172 14.268 14.916 5.018 4.642 10.24 8.977 15.77 12.937 5.393 3.925 11.025 7.509 17.033 10.889 6.076 3.413 12.322 6.451 18.125 8.772 6.11 2.526 12.39 4.642 18.978 6.588 6.588 1.843 13.278 3.345 19.661 4.335 6.69 1.024 13.483 1.707 20.105 1.946 6.827 0.273 13.619 0.137 20.378-0.375 6.758-0.546 13.517-1.536 20.378-2.901 6.793-1.365 13.517-3.174 20.241-5.461 6.69-2.219 13.278-4.881 19.831-8.055 7.714-3.686 15.019-7.851 22.084-12.595 6.929-4.676 13.449-9.762 19.558-15.326 5.939-5.461 11.503-11.298 16.759-17.681 5.325-6.417 10.172-13.244 13.961-19.593 4.096-6.758 7.714-13.79 11.025-21.231 3.243-7.509 5.939-15.189 7.953-22.562 2.116-7.748 3.686-15.633 4.71-23.484 1.024-8.021 1.502-16.077 1.434-24.030-0.102-8.055-0.785-16.145-2.014-24.303-1.297-8.055-3.14-16.111-5.632-24.132-2.423-8.021-5.564-15.906-9.284-23.723-3.686-7.714-7.851-14.985-12.595-22.050-4.676-6.963-9.796-13.483-15.36-19.558-5.427-5.939-11.264-11.537-17.647-16.759-6.451-5.359-13.244-10.206-19.627-13.961-6.758-4.13-13.756-7.714-21.265-11.025-7.475-3.243-15.121-5.939-22.494-7.953-7.782-2.116-15.701-3.686-23.518-4.745-7.987-1.024-16.043-1.502-24.030-1.399-8.055 0.102-16.111 0.785-24.303 2.014-8.055 1.297-16.111 3.14-24.132 5.598s-15.906 5.598-23.689 9.318c-6.485 3.072-12.663 6.519-18.739 10.411-5.939 3.789-11.571 7.919-16.93 12.356-5.257 4.369-10.206 9.045-14.985 14.097-4.915 5.154-9.387 10.547-13.073 15.633-3.994 5.393-7.612 10.991-11.059 16.964-3.413 5.973-6.451 12.151-8.909 18.091-2.662 6.281-4.915 12.663-6.793 19.046-1.877 6.519-3.379 13.141-4.506 19.763-1.058 6.69-1.775 13.414-2.15 20.275-0.341 6.793-0.341 13.687 0.239 20.617 0.649 7.578 2.014 15.155 3.721 22.733-118.716 57.446-237.431 114.825-356.113 172.271-4.471-5.495-9.079-10.581-14.029-15.428-5.052-4.881-10.411-9.523-16.077-13.824-5.803-4.369-11.776-8.329-18.091-11.947-7.441-4.335-15.121-8.021-22.869-11.093-7.817-3.106-15.804-5.188-23.654-7.475-4.028-1.092-22.391-4.745-35.84-5.052-13.483-0.239-32.154 2.697-36.079 3.686-7.475 1.809-15.394 3.516-23.108 6.178-7.714 2.697-14.95 5.803-22.016 9.353-6.656 3.277-13.824 7.578-20.685 12.425-6.724 4.745-12.971 9.796-18.842 15.394-6.007 5.598-11.605 11.742-16.759 18.261-5.325 6.724-10.035 13.653-14.302 21.060-4.335 7.475-8.021 15.155-11.127 22.903-3.072 7.782-5.53 15.667-7.407 23.654-1.877 8.055-3.174 16.043-3.891 24.030-0.683 7.953-0.853 16.043-0.444 24.098 0.444 7.885 1.434 15.906 2.935 23.791 1.434 7.509 3.55 15.394 6.178 23.040 2.731 7.782 5.769 15.019 9.387 22.084 3.277 6.656 7.578 13.79 12.356 20.617 4.779 6.793 9.865 13.039 15.428 18.91 5.632 6.007 11.708 11.571 18.261 16.759 6.69 5.325 13.653 10.035 21.060 14.302 6.281 3.618 12.698 6.827 19.183 9.557 6.519 2.765 13.141 5.052 19.763 6.963 6.69 1.911 13.38 3.379 20.105 4.437 6.656 1.024 13.449 1.673 20.275 1.946 6.69 0.239 13.517 0.068 20.275-0.478 6.417-0.512 13.244-1.468 19.968-2.833 6.793-1.399 13.175-3.14 19.49-5.188 5.973-1.911 12.493-4.506 18.842-7.441 6.281-2.935 12.22-6.144 17.954-9.694 5.871-3.618 11.469-7.543 16.896-11.844 5.53-4.403 15.531-13.961 15.531-13.961z" />
<glyph unicode="&#xe912;" glyph-name="copiar" d="M708.915 369.22c0-0.034 0-354.406 0-354.441-0.068 0-590.711 0-590.746 0 0 0.068 0 590.711 0 590.746 0.034 0 393.796 0 393.83 0 0-0.034 0-236.271 0-236.305 0 0 196.881 0 196.915 0zM590.78 448c0 0 0 118.17 0 118.17s118.135-118.17 118.135-118.17c0 0-118.135 0-118.135 0zM787.695 487.39c-0.034 0-196.915 196.915-196.915 196.915-0.034 0-551.356-0.034-551.39 0 0-0.068 0-748.237 0-748.305 0.068 0 748.271-0.068 748.305 0 0 0.034 0 551.356 0 551.39zM787.695 723.695c0 0 0 118.135 0 118.135s118.135-118.135 118.135-118.135c0 0-118.135 0-118.135 0zM866.475 290.475c0 0 0-78.78 0-78.78s78.746 0.717 118.135 0c0.034 0.034 0 551.356 0 551.39 0 0-196.881 196.915-196.915 196.915s-551.39 0-551.39 0c0.956-65.604 0-196.915 0-196.915s78.78 0 78.78 0c0 0 0 118.135 0 118.135 0.034 0.034 393.796 0 393.83 0 0-0.034 0-236.271 0-236.305 0 0 196.915 0 196.915 0 0-0.034 0-354.509 0-354.441 0 0-39.356 0-39.356 0z" />
<glyph unicode="&#xe913;" glyph-name="css3" d="M905.83 54.17c-0.034 0-393.796-118.17-393.83-118.17s-393.796 118.17-393.83 118.17c0 0.068-118.17 905.762-118.17 905.83 0.102 0 1023.898 0 1024 0 0-0.068-118.17-905.762-118.17-905.83zM827.085 93.525c0 0.102 103.902 787.627 103.936 787.695-0.137 0-841.011 0-841.114 0 0-0.068 107.008-787.593 107.008-787.695 0.034 0 315.051-78.746 315.085-78.746s315.051 78.746 315.085 78.746zM766.498 162.509c0 0.034 53.248 381.065 53.214 381.133 7.987 60.006 15.974 120.013 23.996 180.053 0 0 11.401 78.78 11.401 78.78-0.068 0-685.602 0-685.602 0s-0.102-18.261 11.298-79.428c0.034 0 366.592 0.307 580.506 0.512-8.124-59.938-16.384-120.73-24.371-179.814-0.102 0-532.309 0-532.378 0 5.018-34.133 13.005-78.882 13.005-78.882 0.034 0 508.655 0 508.655 0s-31.369-223.607-31.369-223.607c-0.034 0-363.895 0-363.93 0 0 0-19.934 129.98-19.934 129.98-0.034 0-80.316-0.205-80.316-0.205 0-0.034 31.164-208.521 31.164-208.521 0.068 0 504.627 0 504.661 0z" />
<glyph unicode="&#xe914;" glyph-name="cuadro-marcado" d="M1024-64c0 0.102 0 1023.898 0 1024-0.102 0-1023.898 0-1024 0 0-0.102 0-1023.898 0-1024 0.102 0 1023.898 0 1024 0zM938.667 21.333c-0.102 0-853.231 0-853.333 0 0 0.102 0 853.231 0 853.333 0.102 0 853.231 0 853.333 0 0-0.102 0-853.231 0-853.333zM189.85 455.578c0.068-0.034 286.14-256.034 286.14-256.068 0.034 0.034 398.336 445.065 398.37 445.099 0 0-63.556 56.934-63.556 56.934-0.068-0.068-341.436-381.508-341.47-381.542-0.034 0-222.515 199.168-222.549 199.168 0 0-56.934-63.59-56.934-63.59z" />
<glyph unicode="&#xe915;" glyph-name="cuadro-nomarcado" d="M1024-64c0 0.102 0 1023.898 0 1024-0.102 0-1023.898 0-1024 0 0-0.102 0-1023.898 0-1024 0.102 0 1023.898 0 1024 0zM938.667 21.333c-0.102 0-853.231 0-853.333 0 0 0.102 0 853.231 0 853.333 0.102 0 853.231 0 853.333 0 0-0.102 0-853.231 0-853.333z" />
<glyph unicode="&#xe916;" glyph-name="curculo-marcado" d="M512-64c283.375 0 512 228.625 512 512s-228.625 512-512 512c-283.375 0-512-228.625-512-512s228.625-512 512-512zM512 14.78c-230.912 0-433.22 184.183-433.22 433.22s202.308 433.22 433.22 433.22c230.912 0 433.22-184.183 433.22-433.22s-202.308-433.22-433.22-433.22zM512 723.695c152.576 0 275.695-123.119 275.695-275.695s-123.119-275.695-275.695-275.695c-152.576 0-275.695 123.119-275.695 275.695s123.119 275.695 275.695 275.695z" />
<glyph unicode="&#xe917;" glyph-name="deshacer" d="M889.173 587.127c-109.363 177.664-340.855 232.755-518.588 123.46 44.305-71.919 109.875-178.415 109.875-178.415-0.034 0-416.905 38.263-416.939 38.263 0.034 0.034 153.498 389.53 153.498 389.564 0.034 0 73.762-119.808 109.705-178.108 217.156 133.632 500.122 66.253 633.754-150.869 133.666-217.122 66.458-500.156-150.699-633.685-98.679-60.655-239.718-78.473-315.836-61.338-0.034 0.239 10.342 79.462 10.411 79.599 93.867-16.043 179.746 2.526 261.495 53.043 177.493 109.636 232.653 340.821 123.324 518.485z" />
<glyph unicode="&#xe918;" glyph-name="dinero" d="M1024 118.852c0 0.068 0 658.227 0 658.295-0.102 0-1023.898 0-1024 0 0-0.068 0-658.227 0-658.295 0.102 0 1023.898 0 1024 0zM950.852 192c-0.068 0-877.636 0-877.705 0 0 0.034 0 511.966 0 512 0.068 0 877.636 0 877.705 0 0-0.034 0-511.966 0-512zM530.33 246.647c0 0-36.557 0-36.557 0 0 0.034 0 73.148 0 73.148s-109.739 0-109.739 0c0 0 0 36.557 0 36.557s109.739 0 109.739 0c0 0.034 0 73.148 0 73.148s-109.739 0-109.739 0c0 0.034 0 146.295 0 146.295s109.739 0 109.739 0c0 0.034 0 73.114 0 73.114s36.557 0 36.557 0c0 0 0-73.079 0-73.114 0 0 109.705 0 109.705 0s0-36.591 0-36.591c0 0-109.705 0-109.705 0s0-73.114 0-73.148c0 0 109.705 0 109.705 0s0-146.227 0-146.261c0 0-109.705 0-109.705 0s0-73.114 0-73.148zM420.625 539.204c0 0 0-73.114 0-73.148 0 0 73.148 0 73.148 0 0 0.034 0 73.148 0 73.148s-73.148 0-73.148 0zM603.477 429.5c0 0-73.148 0-73.148 0s0-73.114 0-73.148c0 0 73.148 0 73.148 0 0 0.034 0 73.148 0 73.148zM146.295 265.148c0 0 146.261 0 146.261 0s0-36.591 0-36.591c0 0-146.261 0-146.261 0s0 36.591 0 36.591zM877.705 630.852c0 0-146.261 0-146.261 0s0-36.557 0-36.557c0 0 146.261 0 146.261 0s0 36.557 0 36.557z" />
<glyph unicode="&#xe919;" glyph-name="direccion-aba" d="M0 679.219c0 0 66.048 66.048 66.048 66.048 0.068-0.034 462.473-462.336 462.541-462.37 0.034 0.034 429.295 429.397 429.363 429.431 0 0 66.048-66.048 66.048-66.048-0.034-0.034-495.377-495.616-495.411-495.548-0.068-0.068-528.555 528.452-528.589 528.486z" />
<glyph unicode="&#xe91a;" glyph-name="direccion-arr" d="M0 216.781c0 0 66.048-66.048 66.048-66.048 0.068 0.034 462.473 462.336 462.541 462.37 0.034-0.034 429.295-429.397 429.363-429.431 0 0 66.048 66.048 66.048 66.048-0.034 0.034-495.377 495.548-495.411 495.548-0.068 0.068-528.555-528.452-528.589-528.486z" />
<glyph unicode="&#xe91b;" glyph-name="direccion-der" d="M280.781 960c0 0-66.048-66.048-66.048-66.048 0.034-0.068 462.37-462.438 462.438-462.473-0.068-0.068-429.466-429.363-429.5-429.431 0.034 0 66.048-66.048 66.082-66.048 0 0 495.582 495.377 495.514 495.411 0.068 0.068-528.452 528.555-528.486 528.589z" />
<glyph unicode="&#xe91c;" glyph-name="direccion-izq" d="M743.219 960c0 0 66.048-66.048 66.048-66.048-0.034-0.068-462.336-462.438-462.37-462.473 0.034-0.068 429.397-429.363 429.431-429.431 0 0-66.048-66.048-66.048-66.048-0.034 0-495.616 495.377-495.548 495.411-0.068 0.068 528.452 528.555 528.486 528.589z" />
<glyph unicode="&#xe91d;" glyph-name="encoger" d="M643.277 262.417c0.887-54.443 0-163.26 0-163.26s-54.374 0-54.374 0c0 0 0 271.906 0 271.94 0.034 0 271.906 0 271.94 0 0 0 0-54.374 0-54.374s-163.26 0-163.26 0c107.076-110.455 326.383-326.178 326.417-326.246 0 0-54.374-54.374-54.374-54.374-0.034 0.068-215.893 219.238-326.349 326.315zM643.277 633.583c0.887 54.443 0 163.26 0 163.26s-54.374 0-54.374 0c0 0 0-271.906 0-271.94 0.034 0 271.906 0 271.94 0 0 0 0 54.374 0 54.374s-163.26 0-163.26 0c107.076 110.455 326.383 326.178 326.417 326.246 0 0-54.374 54.374-54.374 54.374-0.034-0.068-215.893-219.238-326.349-326.315zM380.723 633.583c-0.887 54.443 0 163.26 0 163.26s54.374 0 54.374 0c0 0 0-271.906 0-271.94-0.034 0-271.906 0-271.94 0 0 0 0 54.374 0 54.374s163.26 0 163.26 0c-107.076 110.455-326.383 326.178-326.417 326.246 0 0 54.374 54.374 54.409 54.374 0-0.068 215.859-219.238 326.315-326.315zM380.723 262.417c-0.887-54.443 0-163.26 0-163.26s54.374 0 54.374 0c0 0 0 271.906 0 271.94-0.034 0-271.906 0-271.94 0 0 0 0-54.374 0-54.374s163.26 0 163.26 0c-107.076-110.455-326.383-326.178-326.417-326.246 0 0 54.374-54.374 54.409-54.374 0 0.068 215.859 219.238 326.315 326.315z" />
<glyph unicode="&#xe91e;" glyph-name="entrar" d="M93.082 773.803c0 0 0 186.197 0 186.197 0.102 0 930.816 0 930.918 0 0-0.102 0-1023.898 0-1024-0.102 0-930.816 0-930.918 0 0 0 0 186.197 0 186.197s93.116 0 93.116 0c0 0 0-93.116 0-93.116 0.068 0 744.619 0 744.721 0 0 0.102 0 837.734 0 837.837-0.102 0-744.653 0-744.721 0 0 0 0-93.116 0-93.116s-93.116 0-93.116 0zM698.197 494.558c0 0-186.197 186.163-186.197 186.163s0 93.082 0 93.082c0.034-0.034 325.769-325.769 325.803-325.803-0.034-0.034-325.769-325.769-325.803-325.803 0 0 0 93.082 0 93.082s186.197 186.163 186.197 186.163c-0.068 0-698.095 0-698.197 0 0 0 0 93.116 0 93.116s698.129 0 698.197 0z" />
<glyph unicode="&#xe91f;" glyph-name="equis" d="M950.716 960c0-0.068 73.114-73.114 73.114-73.114 0-0.068-438.647-438.818-438.716-438.886 0.068-0.068 438.818-438.682 438.886-438.716-0.068 0-73.114-73.114-73.114-73.114-0.068 0-438.818 438.647-438.886 438.716-0.068-0.068-438.682-438.818-438.716-438.886 0 0.068-73.114 73.114-73.114 73.114 0 0.068 438.647 438.818 438.716 438.886-0.068 0.068-438.818 438.682-438.886 438.716 0.068 0 73.114 73.114 73.114 73.114 0.068 0 438.818-438.647 438.886-438.716 0 0 438.682 438.818 438.716 438.886z" />
<glyph unicode="&#xe920;" glyph-name="etiqueta" d="M0 426.462c0.034 0.102 527.019 529.51 527.053 529.613 0.068 0 496.913 0 496.947 0 0-0.102 0-496.913 0-496.947-0.034-0.068-537.429-519.1-537.463-519.202-0.068 0.102-486.502 486.502-486.537 486.537zM947.541 879.616c-0.034 0-385.775-1.195-385.809-1.195 0 0-453.598-451.891-453.632-451.959 0.034-0.034 378.402-378.334 378.436-378.368 0.034 0.034 460.527 454.11 460.595 454.144 0 0.034 0.41 377.344 0.41 377.378zM699.972 558.729c-45.978 0-83.797 36.318-83.797 82.261 0 46.012 37.82 82.261 83.797 82.261 45.943 0 83.763-36.25 83.763-82.261 0-45.943-37.82-82.261-83.763-82.261zM701.781 492.817c80.555 0 145.51 64.956 145.51 145.51s-64.956 145.476-145.51 145.476c-80.521 0-145.51-64.922-145.51-145.476s64.99-145.51 145.51-145.51z" />
<glyph unicode="&#xe921;" glyph-name="expandir" d="M55.706 848.691c0.887-55.774 0-167.185 0-167.185s-55.706 0-55.706 0c0 0 0 278.46 0 278.494 0.034 0 278.46 0 278.494 0 0 0 0-55.706 0-55.706s-167.185 0-167.185 0c109.636-113.084 334.234-334.029 334.302-334.097 0 0-55.706-55.671-55.74-55.671 0 0.034-221.082 224.529-334.165 334.165zM968.294 848.691c-0.887-55.774 0-167.185 0-167.185s55.706 0 55.706 0c0 0 0 278.46 0 278.494-0.034 0-278.46 0-278.494 0 0 0 0-55.706 0-55.706s167.185 0 167.185 0c-109.636-113.084-334.234-334.029-334.302-334.097 0 0 55.706-55.671 55.74-55.671 0 0.034 221.082 224.529 334.165 334.165zM968.294 47.309c-0.887 55.774 0 167.185 0 167.185s55.706 0 55.706 0c0 0 0-278.46 0-278.494-0.034 0-278.46 0-278.494 0 0 0 0 55.706 0 55.706s167.185 0 167.185 0c-109.636 113.084-334.234 334.029-334.302 334.097 0 0 55.706 55.671 55.74 55.671 0-0.034 221.082-224.529 334.165-334.165zM55.706 47.309c0.887 55.774 0 167.185 0 167.185s-55.706 0-55.706 0c0 0 0-278.46 0-278.494 0.034 0 278.46 0 278.494 0 0 0 0 55.706 0 55.706s-167.185 0-167.185 0c109.636 113.084 334.234 334.029 334.302 334.097 0 0-55.706 55.671-55.74 55.671 0-0.034-221.082-224.529-334.165-334.165z" />
<glyph unicode="&#xe922;" glyph-name="filtro" d="M384 405.333c-0.034 0.034-383.966 511.966-384 512 0 0 1023.898 0 1024 0-0.034-0.034-426.633-511.966-426.667-512 0-0.034 0-426.633 0-426.667-0.034 0-213.333 0-213.333 0 0 0.034 0 426.633 0 426.667zM170.667 832c0.034-0.034 298.667-384 298.667-384 14.199 0 28.467 0 42.667 0 0.034 0.034 341.299 383.966 341.333 384-0.068 0-682.598 0-682.667 0zM512 64c0 0.034 0 199.68 0 298.633-14.199 0-28.467 0-42.667 0 0-0.068 0-298.598 0-298.633 0 0 42.667 0 42.667 0z" />
<glyph unicode="&#xe923;" glyph-name="folder" d="M872.311-7.1c0 0.068 151.689 606.72 151.689 606.788-0.068 0-796.365 0-796.433 0 0-0.034-151.723-492.988-151.723-493.022 0 0.068 0 661.709 0 661.777 0 0 37.922 58.812 37.922 58.812 0.034 0 341.299 0 341.333 0 0 0 75.878-113.766 75.878-113.766 0.034 0 265.421 0 265.455 0 0 0 0-75.844 0-75.844s75.878 0 75.878 0c0 0 0 151.689 0 151.689-0.068 0-303.377 0-303.411 0 0 0-75.878 113.766-75.878 113.766-0.034 0-417.143 0-417.178 0 0 0-75.844-113.766-75.844-113.766 0-0.068 0-796.433 0-796.433 0.068 0 872.209 0 872.311 0zM821.111 68.745c-0.102 0-455.168 1.058-682.769 0-4.915-2.389 138.479 455.066 138.513 455.1 0.034 0 657.988 0 658.022 0 0-0.034-113.732-455.066-113.766-455.1z" />
<glyph unicode="&#xe924;" glyph-name="globo" d="M314.163 32.563c61.303-24.269 127.181-37.478 197.837-37.478 308.019 0 525.005 251.597 512 512-12.049 241.186-226.645 433.22-512 433.22s-499.951-192.034-512-433.22c-4.915-98.953 23.313-196.642 78.029-281.054-12.902-90.112-38.639-270.302-38.639-270.336 0.034 0 183.228 51.234 274.773 76.868zM160.7 245.009c-56.695 74.513-87.552 167.936-81.92 262.076 11.947 199.68 193.297 354.441 433.22 354.441s421.274-154.761 433.22-354.441c13.073-218.556-170.598-433.254-433.22-433.254-70.895 0-136.090 15.667-195.038 43.725-60.518-17.886-181.589-53.623-181.623-53.623 0 0 16.896 120.73 25.361 181.077z" />
<glyph unicode="&#xe925;" glyph-name="globo2" d="M831.215 4.608c-38.775-10.035-79.223-9.626-122.129-7.782-177.869 7.646-314.914 124.86-314.914 275.558 0 150.665 136.909 275.558 314.914 275.558s307.2-125.065 314.914-275.558c2.935-57.515-11.025-114.586-41.779-164.352-0.068-51.166-0.273-153.566-0.273-153.6 0 0-100.489 33.451-150.733 50.176zM912.555 119.603c28.228 45.193 38.502 99.43 32.7 152.781-11.844 109.227-104.38 196.813-236.169 196.813s-236.203-86.972-236.203-196.813c0-109.875 104.926-185.173 236.203-196.847 41.711-3.686 80.452-8.533 118.101 0 28.365-11.025 85.163-33.041 85.163-33.041s0.171 51.405 0.205 77.107zM411.546 79.77c0 0-67.072 20.070-94.208 39.458-60.518-17.852-181.521-53.589-181.555-53.589 0 0 16.862 120.695 25.327 180.975-5.154 6.827-10.103 13.756-14.78 20.787-4.745 7.1-9.216 14.302-13.517 21.641-4.233 7.373-8.26 14.814-12.083 22.391-3.721 7.475-7.305 15.223-10.65 23.074-3.277 7.714-6.383 15.667-9.216 23.689-2.731 7.68-5.325 15.906-7.68 24.235-2.355 8.397-4.369 16.486-6.11 24.644-1.707 7.68-3.277 16.35-4.54 25.054-1.263 8.567-2.15 16.93-2.833 25.293-0.649 8.499-1.024 16.998-1.092 25.532-0.068 8.67 0.137 17.135 0.649 25.6 1.092 18.159 3.55 35.942 7.339 53.248 3.823 17.34 8.943 34.202 15.292 50.517 6.451 16.418 13.961 32.119 22.665 47.275 8.67 14.985 18.534 29.628 29.559 43.588 10.82 13.653 22.903 26.897 35.942 39.39 12.425 11.913 26.692 23.757 41.882 34.714 15.394 10.923 30.891 20.651 47.241 29.457 15.326 8.397 33.348 16.657 52.19 23.825 18.534 7.1 37.239 12.868 56.525 17.613 19.627 4.813 39.765 8.499 60.484 10.923 21.163 2.492 42.325 3.755 63.898 3.755 21.777 0 43.11-1.297 63.863-3.755 20.787-2.458 40.96-6.178 60.484-10.923 19.627-4.847 38.4-10.718 56.525-17.613 17.92-6.895 35.43-14.882 52.19-23.825 16.282-8.806 32.188-18.671 47.241-29.457 14.336-10.274 28.604-22.050 41.882-34.714 13.21-12.766 25.088-25.737 35.942-39.39 10.308-12.766 20.548-27.819 29.559-43.588 8.943-15.497 16.418-31.13 22.665-47.275 6.417-16.35 11.503-33.212 15.292-50.517 3.857-17.681 6.758-52.599 7.339-53.248 1.024-0.922 78.746 0 78.746 0s-3.823 43.008-8.192 64.444c-4.335 20.958-10.206 41.404-17.681 61.338-7.27 19.627-15.974 38.673-26.487 57.617-10.547 19.183-22.63 37.615-34.748 53.248-12.8 16.691-26.761 32.529-42.428 48.265-15.667 15.462-32.563 29.935-49.493 42.53-17.783 13.278-36.659 25.429-55.979 36.318-19.866 10.991-40.619 20.855-61.85 29.355-21.538 8.499-43.793 15.735-67.14 21.709-23.142 5.905-47.138 10.479-71.817 13.551-24.644 3.072-49.971 4.642-75.913 4.642-25.668 0-50.756-1.536-75.947-4.642-24.61-3.038-48.572-7.543-71.817-13.551-22.938-5.803-45.090-12.971-67.14-21.709-22.323-8.806-43.691-19.012-61.85-29.355-19.354-10.889-37.751-22.835-55.979-36.318-17.954-13.414-34.782-27.989-49.493-42.53-15.428-15.36-29.628-31.573-42.428-48.265-12.937-17.135-24.61-35.021-34.748-53.248-10.206-18.5-19.012-37.615-26.487-57.617-7.407-19.831-13.312-40.311-17.681-61.338-4.335-20.958-7.1-42.496-8.192-64.444-0.444-8.875-0.614-17.783-0.512-26.931 0.068-8.909 0.444-17.852 1.058-26.795 0.649-8.806 1.502-17.579 2.697-26.658 1.161-9.148 2.628-18.295 4.198-26.419 1.638-8.636 3.584-17.237 5.734-26.112 2.253-8.875 4.71-17.647 7.27-25.839 2.697-8.602 5.598-17.135 8.738-25.429 3.14-8.465 6.554-16.794 10.103-24.951 3.618-8.226 7.441-16.35 11.537-24.474 4.096-8.090 8.397-16.043 12.902-23.962 4.54-7.851 9.284-15.667 14.268-23.313-12.902-90.078-38.639-270.165-38.639-270.199 0.034 0 183.125 51.2 274.671 76.834 26.385-15.292 97.758-34.099 97.758-34.099-1.126-5.461-0.751 79.531-0.751 79.565z" />
<glyph unicode="&#xe926;" glyph-name="grafica" d="M81.92 325.12c122.266 96.324 368.606 286.686 368.64 286.72 0 0 163.84-163.84 163.84-163.84 0.034 0.034 327.646 286.686 327.68 286.72 0 0 0-81.92 0-81.92s81.92 0 81.92 0c0 0.034 0 245.726 0 245.76 0 0-204.8 0-204.8 0s0-81.92 0-81.92c0 0 81.92 0 81.92 0-0.034-0.034-286.686-245.726-286.72-245.76 0 0-163.84 163.84-163.84 163.84-0.034-0.034-246.579-190.089-368.64-286.72 0 0.034 0 512.751 0 512.785 0 0-81.92 0-81.92 0 0-0.068 0-1004.305 0-1004.305 0.068 0 1023.932 0 1024 0 0 0 0 81.92 0 81.92s-122.88 0-122.88 0c0 0.034 0 491.486 0 491.52 0 0-81.92 0-81.92 0 0-0.034 0-491.486 0-491.52 0 0-122.88 0-122.88 0 0 0.034 0 286.686 0 286.72 0 0-81.92 0-81.92 0 0-0.034 0-286.686 0-286.72 0 0-122.88 0-122.88 0 0 0.034 0 409.566 0 409.6 0 0-81.92 0-81.92 0 0-0.034 0-409.566 0-409.6 0 0-122.88 0-122.88 0 0 0.034 0 286.686 0 286.72 0 0-81.92 0-81.92 0 0-0.034 0-286.686 0-286.72 0 0-122.88 0-122.88 0 0 0.034 0 286.686 0 286.72z" />
<glyph unicode="&#xe927;" glyph-name="hoja" d="M1024 763.085c0 0-196.915 196.915-196.915 196.915-0.102 0-827.017 0-827.085 0 0-0.102 0-1023.898 0-1024 0.102 0 1023.898 0 1024 0 0 0.068 0 826.982 0 827.085zM945.22 644.915c0-0.068 0-630.067 0-630.135-0.068 0-866.372 0-866.441 0 0 0.068 0 866.372 0 866.441 0.068 0 669.457 0 669.525 0 0-0.034 0-236.271 0-236.305 0 0 196.881 0 196.915 0zM827.085 723.695c0 0 0 118.135 0 118.135s118.135-118.135 118.135-118.135c0 0-118.135 0-118.135 0z" />
<glyph unicode="&#xe928;" glyph-name="hoja-texto" d="M1024 763.085c0 0-196.915 196.915-196.915 196.915-0.102 0-827.017 0-827.085 0 0-0.102 0-1023.898 0-1024 0.102 0 1023.898 0 1024 0 0 0.068 0 826.982 0 827.085zM945.22 644.915c0-0.068 0-630.067 0-630.135-0.068 0-866.372 0-866.441 0 0 0.068 0 866.372 0 866.441 0.068 0 669.457 0 669.525 0 0-0.034 0-236.271 0-236.305 0 0 196.881 0 196.915 0zM827.085 723.695c0 0 0 118.135 0 118.135s118.135-118.135 118.135-118.135c0 0-118.135 0-118.135 0zM157.525 526.78c0.102 0 708.847 0 708.949 0 0 0 0-78.78 0-78.78-0.102 0-708.847 0-708.949 0 0 0 0 78.78 0 78.78zM157.525 369.22c0.102 0 708.847 0 708.949 0 0 0 0-78.746 0-78.746-0.102 0-708.847 0-708.949 0 0 0 0 78.746 0 78.746zM157.525 211.695c0.068 0 511.966 0 512 0 0 0 0-78.78 0-78.78-0.034 0-511.932 0-512 0 0 0 0 78.78 0 78.78z" />
<glyph unicode="&#xe929;" glyph-name="html5" d="M905.83 54.17c-0.034 0-393.796-118.17-393.83-118.17s-393.796 118.17-393.83 118.17c0 0.068-118.17 905.762-118.17 905.83 0.102 0 1023.898 0 1024 0 0-0.068-118.17-905.762-118.17-905.83zM827.085 93.525c0 0.102 103.902 787.627 103.936 787.695-0.137 0-841.011 0-841.114 0 0-0.068 107.008-787.593 107.008-787.695 0.034 0 315.051-78.746 315.085-78.746s315.051 78.746 315.085 78.746zM694.852 241.254c-0.034 0-363.895 0-363.93 0 0 0-19.934 129.98-19.934 129.98-0.034 0-80.316-0.205-80.316-0.205 0-0.034 31.164-208.521 31.164-208.521 0.068 0 504.627 0 504.661 0 0 0.034 53.214 381.065 53.214 381.133-0.034 0-532.548 0-532.651 0 0 0-24.064 179.268-24.064 179.302 0.068 0 580.608 0.751 580.71 0.751 0 0 11.401 78.78 11.401 78.78-0.068 0-685.568 0-685.602 0 0-0.068 48.060-337.613 48.060-337.613 0.068 0 508.621 0 508.655 0 0 0-31.369-223.607-31.369-223.607z" />
<glyph unicode="&#xe92a;" glyph-name="imagen" d="M1024 14.78c0 0.068 0 866.372 0 866.441-0.102 0-1023.898 0-1024 0 0-0.068 0-866.372 0-866.441 0.102 0 1023.898 0 1024 0zM354.475 290.475c-0.068 0-275.661 196.915-275.695 196.915 0 0.034 0 315.017 0 315.085 0.068 0 866.372 0 866.441 0 0-0.068 0-511.966 0-512-0.034 0-315.017 157.525-315.051 157.525-0.068 0-275.661-157.525-275.695-157.525zM945.22 211.695c0 0 0-118.17 0-118.17-0.068 0-866.372 0-866.441 0 0 0.068 0 315.051 0 315.085 0.034-0.034 275.627-196.915 275.695-196.915 0.034 0 275.627 157.525 275.695 157.525 0.034 0 315.017-157.525 315.051-157.525zM354.475 723.695c65.365 0 118.135-52.77 118.135-118.17 0-65.365-52.77-118.135-118.135-118.135-65.399 0-118.17 52.77-118.17 118.135 0 65.399 52.77 118.17 118.17 118.17z" />
<glyph unicode="&#xe92b;" glyph-name="informacion" d="M393.83 566.17c0 0 157.559 0 157.559 0 0-0.068 0-315.051 0-315.085 0 0 78.78 0 78.78 0s0-78.78 0-78.78c-0.068 0-236.271 0-236.339 0 0 0 0 78.78 0 78.78s78.78 0 78.78 0c0 0.034 0 236.271 0 236.305 0 0-78.78 0-78.78 0s0 78.78 0 78.78zM472.61 723.695c0 0 78.78 0 78.78 0s0-78.78 0-78.78c0 0-78.78 0-78.78 0s0 78.78 0 78.78zM531.695-64c267.23 6.178 492.305 222.891 492.305 512s-225.075 505.822-492.305 512c-277.709 6.417-531.695-211.558-531.695-512s253.986-518.417 531.695-512zM512 14.78c-230.571 0-433.22 183.842-433.22 433.22s202.65 433.22 433.22 433.22c230.571 0 433.22-183.842 433.22-433.22s-202.65-433.22-433.22-433.22z" />
<glyph unicode="&#xe92c;" glyph-name="interructor" d="M1024 132.915c0 0.102 0 630.067 0 630.17-0.102 0-1023.898 0-1024 0 0-0.102 0-630.067 0-630.17 0.102 0 1023.898 0 1024 0zM945.22 211.695c-0.068 0-866.372 0-866.441 0 0 0.034 0 472.576 0 472.61 0.068 0 866.372 0 866.441 0 0-0.034 0-472.576 0-472.61zM118.17 644.915c0.034 0 393.796 0 393.83 0 0-0.034 0-393.796 0-393.83-0.034 0-393.796 0-393.83 0 0 0.034 0 393.796 0 393.83z" />
<glyph unicode="&#xe92d;" glyph-name="inteructor2" d="M1024 132.915c0 0.102 0 630.067 0 630.17-0.102 0-1023.898 0-1024 0 0-0.102 0-630.067 0-630.17 0.102 0 1023.898 0 1024 0zM945.22 211.695c-0.068 0-866.372 0-866.441 0 0 0.034 0 472.576 0 472.61 0.068 0 866.372 0 866.441 0 0-0.034 0-472.576 0-472.61zM512 644.915c0.034 0 393.796 0 393.83 0 0-0.034 0-393.796 0-393.83-0.034 0-393.796 0-393.83 0 0 0.034 0 393.796 0 393.83z" />
<glyph unicode="&#xe92e;" glyph-name="jscript" d="M905.83 54.17c-0.034 0-393.796-118.17-393.83-118.17s-393.796 118.17-393.83 118.17c0 0.068-118.17 905.762-118.17 905.83 0.102 0 1023.898 0 1024 0 0-0.068-118.17-905.762-118.17-905.83zM828.314 112.026c0.034 0.068 102.673 769.126 102.707 769.195-0.137 0-841.011 0-841.114 0 0-0.068 103.322-769.126 103.322-769.195 0.034 0 318.737-97.246 318.771-97.246s316.245 97.246 316.314 97.246zM766.498 162.509c0 0.034 53.248 381.065 53.214 381.133 7.987 60.006 15.974 120.013 23.996 180.053 0 0 11.401 78.78 11.401 78.78s-387.413 0-387.447 0c0-0.068-0.41-79.428-0.41-79.428s294.025-0.171 294.059-0.137c0 0-66.458-481.587-66.458-481.655-0.034 0-363.895 0-363.93 0 0 0-19.934 129.98-19.934 129.98-0.034 0-80.316-0.205-80.316-0.205 0-0.034 31.164-208.521 31.164-208.521 0.068 0 504.627 0 504.661 0z" />
<glyph unicode="&#xe92f;" glyph-name="juego" d="M866.475 782.78c-0.102 0-866.406 0-866.475 0 0-0.102 0-827.017 0-827.085 0.068 0 866.372 0 866.475 0 0 0.068 0 826.982 0 827.085zM787.695 704c0-0.068 0-669.457 0-669.525-0.068 0-708.847 0-708.915 0 0 0.068 0 669.457 0 669.525 0.068 0 708.847 0 708.915 0zM236.305 664.61c54.511 0 98.475-43.964 98.475-98.441 0-54.511-43.964-98.475-98.475-98.475s-98.475 43.964-98.475 98.475c0 54.477 43.964 98.441 98.475 98.441zM236.305 270.78c54.511 0 98.475-43.964 98.475-98.475s-43.964-98.475-98.475-98.475c-54.511 0-98.475 43.964-98.475 98.475s43.964 98.475 98.475 98.475zM433.22 467.695c54.511 0 98.475-43.964 98.475-98.475s-43.964-98.441-98.475-98.441c-54.511 0-98.441 43.93-98.441 98.441s43.93 98.475 98.441 98.475zM630.17 270.78c54.477 0 98.441-43.964 98.441-98.475s-43.964-98.475-98.441-98.475c-54.511 0-98.475 43.964-98.475 98.475s43.964 98.475 98.475 98.475zM630.17 664.61c54.477 0 98.441-43.964 98.441-98.441 0-54.511-43.964-98.475-98.441-98.475-54.511 0-98.475 43.964-98.475 98.475 0 54.477 43.964 98.441 98.475 98.441zM945.22 861.525c0-0.068 0-826.982 0-827.051 0 0 78.78 78.746 78.78 78.746 0 0.102 0 827.017 0 827.085-0.068 0-866.372 0-866.475 0 0 0-78.746-78.78-78.746-78.78s866.372 0 866.441 0z" />
<glyph unicode="&#xe930;" glyph-name="lapiz" d="M536.678 960c-0.034-0.034-464.418-451.925-464.486-451.959 0-0.102-65.058-571.972-65.092-572.041 0.068 0.034 545.28 78.507 545.314 78.507 0.068 0.034 464.452 451.959 464.486 451.994 0 0-56.491 58.061-56.491 58.061-0.034-0.034-464.452-451.925-464.486-451.959 0-0.068-294.741-45.568-294.775-45.568 0 0-105.404 108.271-105.404 108.305 0 0 32.939 314.607 32.939 314.607 0.034 0.068 464.452 451.959 464.486 451.994 0 0-56.491 58.061-56.491 58.061zM213.436 362.871c0.068 0.068 464.452 451.959 464.486 451.994 0 0 56.491-58.061 56.491-58.095-0.034-0.034-464.452-451.925-464.486-451.959 0 0-56.457 58.061-56.491 58.061zM354.679 217.737c0.068 0.034 464.452 451.925 464.486 451.959 0 0 56.491-58.061 56.491-58.061-0.034-0.034-464.452-451.925-464.486-451.959 0 0-56.491 58.061-56.491 58.061z" />
<glyph unicode="&#xe931;" glyph-name="libro" d="M158.106 14.78c0 0 0.341 78.746 0.341 78.746 0.068-0.068 786.705 0 786.773 0 0 0.102 0 866.406 0 866.475-0.068 0-866.372 0-866.441 0 0 0-0.102-1024-0.102-1024 0.068-0.034 866.475 0 866.543 0 0 0 0 78.78 0 78.78-0.068 0-787.081 0-787.115 0zM157.525 172.305c0 0.068 0 708.847 0 708.915 0.102 0 708.847 0 708.949 0 0-0.068 0-708.847 0-708.915-0.102 0-708.847 0-708.949 0zM787.695 526.78c-0.034 0-551.356 0-551.39 0 0 0.034 0 275.627 0 275.695 0.034 0 551.356 0 551.39 0 0-0.068 0-275.661 0-275.695zM708.915 605.525c0 0 0 118.17 0 118.17-0.034 0-393.796 0-393.83 0 0 0 0-118.17 0-118.17 0.034 0 393.796 0 393.83 0z" />
<glyph unicode="&#xe932;" glyph-name="libros" d="M806.263 12.493c0 0.068 0 870.946 0 871.014 0.034 0 217.702 0 217.737 0 0-0.068 0-870.946 0-871.014-0.034 0-217.702 0-217.737 0zM878.831 85.094c0 0 72.602 0 72.602 0 0 0.068 0 725.743 0 725.811 0 0-72.602 0-72.602 0 0-0.068 0-725.743 0-725.811zM515.925 12.493c0 0.068 0 870.946 0 871.014 0.034 0 217.702 0 217.737 0 0-0.068 0-870.946 0-871.014-0.034 0-217.702 0-217.737 0zM588.493 85.094c0 0 72.602 0 72.602 0 0 0.068 0 725.743 0 725.811 0 0-72.602 0-72.602 0 0-0.068 0-725.743 0-725.811zM0 103.287c0.034 0.102 317.85 692.634 317.884 692.702 0 0 197.871-90.795 197.905-90.829-0.034-0.068-317.85-692.599-317.884-692.668 0 0-197.871 90.795-197.905 90.795zM96.256 139.025c0 0 65.946-30.276 65.98-30.276 0 0.034 257.263 560.674 257.297 560.742 0 0-65.98 30.276-65.98 30.276-0.034-0.102-257.263-560.674-257.297-560.742z" />
<glyph unicode="&#xe933;" glyph-name="llave" d="M415.676 135.68c76.117 76.425 75.913 199.475-0.478 275.627-76.459 76.151-199.543 75.947-275.695-0.512-76.151-76.39-75.913-199.475 0.512-275.627s199.509-75.947 275.661 0.512zM828.621 439.637c-0.034 0.034-165.683 165.103-165.717 165.103 0-0.034-109.431-110.080-166.161-167.253 8.055-11.196 14.95-22.938 21.231-34.816 6.11-11.639 11.503-23.313 15.94-35.328 4.369-11.947 7.953-24.303 10.684-36.864 2.594-12.254 4.403-24.951 5.359-37.717 0.922-12.151 0.922-25.122 0.068-38.025-0.99-13.039-2.662-25.429-5.222-37.786-2.321-11.605-5.973-24.371-10.547-36.83-4.471-12.425-9.694-24.098-15.804-35.43-6.144-11.537-13.21-22.665-21.129-33.348-8.090-10.923-16.828-21.094-26.419-30.72-9.694-9.728-19.934-18.603-30.618-26.522-10.684-7.953-21.811-15.053-33.246-21.231-11.605-6.246-23.347-11.537-35.362-15.974-11.913-4.335-24.303-7.953-36.864-10.65-12.254-2.594-24.951-4.403-37.717-5.359-12.151-0.887-25.088-0.956-38.025-0.068-13.005 0.956-25.429 2.697-37.786 5.222-11.571 2.321-24.371 5.939-36.83 10.513-12.356 4.506-24.098 9.762-35.43 15.804-11.537 6.212-22.665 13.244-33.348 21.163-10.889 8.055-21.060 16.828-30.72 26.419-9.728 9.66-18.569 19.934-26.487 30.583-7.987 10.718-15.087 21.845-21.265 33.314-6.212 11.537-11.503 23.279-15.974 35.294-4.335 11.947-7.885 24.303-10.65 36.864-2.56 12.288-4.403 24.951-5.359 37.717-0.887 12.151-0.956 25.122-0.068 38.025 0.956 13.039 2.697 25.463 5.222 37.786 2.355 11.605 5.939 24.371 10.513 36.864 4.506 12.39 9.762 24.064 15.872 35.43 6.144 11.537 13.175 22.665 21.094 33.314 8.124 10.923 16.828 21.094 26.419 30.72 9.728 9.728 19.934 18.603 30.618 26.556 10.718 7.953 21.811 15.019 33.28 21.197 11.537 6.246 23.313 11.537 35.362 15.974 11.878 4.335 24.269 7.953 36.796 10.684 12.322 2.56 24.986 4.403 37.751 5.325 12.151 0.922 25.122 0.956 38.059 0.068 13.005-0.956 25.429-2.628 37.717-5.222 11.605-2.321 24.371-5.939 36.898-10.513 12.356-4.471 24.030-9.728 35.396-15.804 11.537-6.178 22.665-13.21 33.348-21.129 140.663 139.162 415.778 415.266 415.812 415.3 0 0 55.194-54.989 55.262-54.989-0.068-0.068-55.057-55.262-55.057-55.262 0-0.034 165.683-165.103 165.683-165.103s-55.023-55.228-55.023-55.228c-0.034 0.034-165.683 165.103-165.717 165.103 0 0-82.5-82.842-82.5-82.842 0-0.034 165.683-165.103 165.683-165.103s-55.023-55.228-55.023-55.228z" />
<glyph unicode="&#xe934;" glyph-name="magafono" d="M354.475 388.915c-0.068 0-275.661 0-275.695 0 0 0 0 157.559 0 157.559 0.034 0 275.627 0 275.695 0 0 0 0-157.559 0-157.559zM157.525 310.17c0-0.068 0-315.051 0-315.085 0 0 196.881 0 196.949 0 0 0.034 0 315.017 0 315.085 0.034-0.068 551.322-275.627 551.356-275.627 0 0 0 314.948 0 314.982 0 0 118.17 39.39 118.17 39.39s0 157.559 0 157.559c0 0-118.17 39.356-118.17 39.356 0 0.068 0 315.051 0 315.085-0.034-0.034-551.322-275.661-551.356-275.695-0.068 0-354.441 0-354.475 0 0-0.034 0-315.051 0-315.051s157.525 0 157.525 0zM275.695 73.83c0 0-39.39 0-39.39 0 0 0.068 0 236.271 0 236.339 0 0 39.39 0 39.39 0 0-0.068 0-236.271 0-236.339zM827.085 152.678c-0.034 0-393.83 196.813-393.865 196.847 0 0.068 0 236.271 0 236.305 0.034 0.068 393.83 196.949 393.865 196.949 0-0.102 0-630.033 0-630.101z" />
<glyph unicode="&#xe935;" glyph-name="mas" d="M469.333 960c0 0 85.333 0 85.333 0 0-0.034 0-469.299 0-469.333 0.034 0 469.299 0 469.333 0 0 0 0-85.333 0-85.333-0.034 0-469.299 0-469.333 0 0-0.034 0-469.299 0-469.333 0 0-85.333 0-85.333 0 0 0.034 0 469.299 0 469.333-0.034 0-469.299 0-469.333 0 0 0 0 85.333 0 85.333 0.034 0 469.299 0 469.333 0 0 0 0 469.299 0 469.333z" />
<glyph unicode="&#xe936;" glyph-name="menos" d="M1024 490.667c0 0 0-85.333 0-85.333-0.034 0-1023.966 0-1024 0 0 0 0 85.333 0 85.333 0.034 0 1023.966 0 1024 0z" />
<glyph unicode="&#xe937;" glyph-name="menu" d="M0 773.803c0.102 0 1023.898 0 1024 0 0 0 0-93.082 0-93.082-0.102 0-1023.898 0-1024 0 0 0 0 93.082 0 93.082zM0 494.558c0.102 0 1023.898 0 1024 0 0 0 0-93.116 0-93.116-0.102 0-1023.898 0-1024 0 0 0 0 93.116 0 93.116zM0 215.279c0.102 0 1023.898 0 1024 0 0 0 0-93.082 0-93.082-0.102 0-1023.898 0-1024 0 0 0 0 93.082 0 93.082z" />
<glyph unicode="&#xe938;" glyph-name="menu-cuadro" d="M1024-64c0 0.102 0 1023.898 0 1024-0.102 0-1023.898 0-1024 0 0-0.102 0-1023.898 0-1024 0.102 0 1023.898 0 1024 0zM950.852 9.148c-0.068 0-877.636 0-877.705 0 0 0.068 0 877.636 0 877.705 0.068 0 877.636 0 877.705 0 0-0.068 0-877.636 0-877.705zM182.852 704c0.068 0 658.227 0 658.295 0 0 0 0-73.148 0-73.148-0.068 0-658.227 0-658.295 0 0 0 0 73.148 0 73.148zM182.852 484.557c0.068 0 658.227 0 658.295 0 0 0 0-73.114 0-73.114-0.068 0-658.227 0-658.295 0 0 0 0 73.114 0 73.114zM182.852 265.148c0.068 0 658.227 0 658.295 0 0 0 0-73.148 0-73.148-0.068 0-658.227 0-658.295 0 0 0 0 73.148 0 73.148z" />
<glyph unicode="&#xe939;" glyph-name="menu-grupo" d="M0 960c0.034 0 265.489 0 265.489 0s0-265.455 0-265.489c0 0-265.455 0-265.489 0 0 0.034 0 265.489 0 265.489zM379.255 960c0.034 0 265.489 0 265.489 0s0-265.455 0-265.489c0 0-265.455 0-265.489 0 0 0.034 0 265.489 0 265.489zM758.511 960c0.034 0 265.489 0 265.489 0s0-265.455 0-265.489c0 0-265.455 0-265.489 0 0 0.034 0 265.489 0 265.489zM0 580.745c0.034 0 265.489 0 265.489 0s0-265.455 0-265.489c0 0-265.455 0-265.489 0 0 0.034 0 265.489 0 265.489zM379.255 580.745c0.034 0 265.489 0 265.489 0s0-265.455 0-265.489c0 0-265.455 0-265.489 0 0 0.034 0 265.489 0 265.489zM758.511 580.745c0.034 0 265.489 0 265.489 0s0-265.455 0-265.489c0 0-265.455 0-265.489 0 0 0.034 0 265.489 0 265.489zM0 201.489c0.034 0 265.489 0 265.489 0s0-265.455 0-265.489c0 0-265.455 0-265.489 0 0 0.034 0 265.489 0 265.489zM379.255 201.489c0.034 0 265.489 0 265.489 0s0-265.455 0-265.489c0 0-265.455 0-265.489 0 0 0.034 0 265.489 0 265.489zM758.511 201.489c0.034 0 265.489 0 265.489 0s0-265.455 0-265.489c0 0-265.455 0-265.489 0 0 0.034 0 265.489 0 265.489z" />
<glyph unicode="&#xe93a;" glyph-name="menu-lista" d="M275.627 773.803c0.068 0 748.305 0 748.373 0 0 0 0-93.082 0-93.082-0.068 0-748.305 0-748.373 0 0 0 0 93.082 0 93.082zM1.399 815.241c0.034 0 178.722 0 178.722 0s0-178.688 0-178.722c0 0-178.688 0-178.722 0 0 0.034 0 178.722 0 178.722zM275.627 493.124c0.068 0 748.305 0 748.373 0 0 0 0-93.116 0-93.116-0.068 0-748.305 0-748.373 0 0 0 0 93.116 0 93.116zM1.434 534.528c0 0 178.688 0 178.688 0s0-178.688 0-178.688c0 0-178.688 0-178.688 0s0 178.688 0 178.688zM273.92 215.586c0.068 0 748.305 0 748.373 0 0 0 0-93.116 0-93.116-0.068 0-748.305 0-748.373 0 0 0 0 93.116 0 93.116zM-0.273 256.99c0 0 178.688 0 178.688 0s0-178.688 0-178.688c0 0-178.688 0-178.688 0s0 178.688 0 178.688z" />
<glyph unicode="&#xe93b;" glyph-name="menu-puntos" d="M896 576c70.827 0 128-57.173 128-128s-57.173-128-128-128c-70.827 0-128 57.173-128 128s57.173 128 128 128zM512 576c70.827 0 128-57.173 128-128s-57.173-128-128-128c-70.827 0-128 57.173-128 128s57.173 128 128 128zM128 576c70.827 0 128-57.173 128-128s-57.173-128-128-128c-70.827 0-128 57.173-128 128s57.173 128 128 128z" />
<glyph unicode="&#xe93c;" glyph-name="menu-puntos2" d="M512 960c70.827 0 128-57.173 128-128s-57.173-128-128-128c-70.827 0-128 57.173-128 128s57.173 128 128 128zM512 576c70.827 0 128-57.173 128-128s-57.173-128-128-128c-70.827 0-128 57.173-128 128s57.173 128 128 128zM512 192c70.827 0 128-57.173 128-128s-57.173-128-128-128c-70.827 0-128 57.173-128 128s57.173 128 128 128z" />
<glyph unicode="&#xe93d;" glyph-name="monitor" d="M170.667 64c0 0 0-85.333 0-85.333 0.068 0 682.598 0 682.667 0 0 0 0 85.333 0 85.333-0.034 0-298.633 0-298.667 0 0 0 0.307 128 0.307 128 154.999 0 468.992 0 469.026 0 0 0.068 0 725.265 0 725.333-0.102 0-1023.898 0-1024 0 0-0.068 0-725.265 0-725.333 0.034 0 294.81 0 469.538 0 0 0-0.205-128-0.205-128-0.034 0-298.633 0-298.667 0zM938.667 277.333c-0.102 0-853.231 0-853.333 0 0 0.034 0 554.633 0 554.667 0.102 0 853.231 0 853.333 0 0-0.034 0-554.633 0-554.667z" />
<glyph unicode="&#xe93e;" glyph-name="movil" d="M810.667-64c0 0.102 0 1023.898 0 1024-0.034 0-597.299 0-597.333 0 0-0.102 0-1023.898 0-1024 0.034 0 597.299 0 597.333 0zM725.333 106.667c-0.034 0-426.633 0-426.667 0 0 0.068 0 767.898 0 768 0.034 0 426.633 0 426.667 0 0-0.102 0-767.932 0-768zM512-21.333c-23.586 0-42.667 19.081-42.667 42.667s19.081 42.667 42.667 42.667c23.586 0 42.667-19.081 42.667-42.667s-19.081-42.667-42.667-42.667z" />
<glyph unicode="&#xe93f;" glyph-name="musica" d="M411.068 93.525c1.673 210.057 0 630.101 0 630.17 0.034 0 528.964 78.78 528.998 78.78 0-0.068-1.468-335.292-0.307-502.921-36.284 20.241-79.019 30.174-121.754 30.276-100.727 0.273-203.469-56.798-203.469-157.525 0-100.693 102.741-157.525 203.469-157.525 100.693 0 202.615 56.832 203.435 157.525 2.185 262.588 0 787.627 0 787.695-0.068 0-691.678-118.17-691.78-118.17 0-0.068-1.707-414.037-0.307-621.056-36.284 20.275-79.019 30.208-121.754 30.31-100.727 0.239-203.469-56.832-203.469-157.559 0-100.693 102.741-157.525 203.469-157.525 100.693 0 202.65 56.832 203.469 157.525z" />
<glyph unicode="&#xe940;" glyph-name="notificacion" d="M472.61 723.695c0 0 78.78 0 78.78 0 0-0.034 0-393.796 0-393.865 0 0-78.78 0-78.78 0 0 0.068 0 393.83 0 393.865zM472.61 251.085c0 0 78.78 0 78.78 0s0-78.78 0-78.78c0 0-78.78 0-78.78 0s0 78.78 0 78.78zM531.695-64c267.23 6.178 492.305 222.891 492.305 512s-225.075 505.822-492.305 512c-277.709 6.417-531.695-211.558-531.695-512s253.986-518.417 531.695-512zM512 14.78c-230.571 0-433.22 183.842-433.22 433.22s202.65 433.22 433.22 433.22c230.571 0 433.22-183.842 433.22-433.22s-202.65-433.22-433.22-433.22z" />
<glyph unicode="&#xe941;" glyph-name="oficina" d="M343.279 605.525c0 0-216.917 0-216.917 0 0 0.068 0 196.949 0 196.949s216.917 0 216.917 0c0 0 0-196.881 0-196.949zM282.146 657.783c0 0 0 97.007 0 97.007s-97.758 0-97.758 0c0 0 0-97.007 0-97.007s97.758 0 97.758 0zM393.83 881.22c-0.034 0-315.017 0-315.051 0 0-0.068 0-866.372 0-866.441 0.034 0 315.017 0 315.051 0 0 0.068 0 866.372 0 866.441zM472.61 487.39c0-144.418 0-360.858 0-472.576 0 0 78.78-0.034 78.78-0.034 0 0.034 0 354.406 0 354.441 0.034 0 315.017 0 315.085 0 0-0.034 0-354.406 0-354.441 0 0 78.746 0 78.746 0 0 155.716 0 472.576 0 472.61-0.034 0-472.61 0-472.61 0zM787.695 290.475c0 0-157.525 0-157.525 0 0-0.068 0-354.441 0-354.475 0 0-157.559 0-157.559 0-0.034 0-472.576 0-472.61 0 0 0 0 1023.898 0 1024 0.034 0 472.576 0 472.61 0 0-0.034 0-236.271 0-236.305 0.034 0 551.356 0 551.39 0 0 0 0-78.78 0-78.78-0.034 0-551.356 0-551.39 0 0 0 0-52.838 0-78.746 0.034 0 551.356 0 551.39 0 0-0.102 0-630.101 0-630.17 0 0-78.78 0-78.78 0s-157.525 0-157.525 0c0 0.034 0 354.406 0 354.475zM343.279 298.496c0 0-216.917 0-216.917 0 0 0.034 0 196.915 0 196.915s216.917 0 216.917 0c0 0 0-196.881 0-196.915zM282.146 350.754c0 0 0 97.007 0 97.007s-97.758 0-97.758 0c0 0 0-97.007 0-97.007s97.758 0 97.758 0z" />
<glyph unicode="&#xe942;" glyph-name="pausar" d="M531.695-64c267.23 6.178 492.305 222.891 492.305 512s-225.075 505.822-492.305 512c-277.709 6.417-531.695-211.558-531.695-512s253.986-518.417 531.695-512zM512 14.78c-230.571 0-433.22 183.842-433.22 433.22s202.65 433.22 433.22 433.22c230.571 0 433.22-183.842 433.22-433.22s-202.65-433.22-433.22-433.22zM354.475 644.915c0 0 78.746 0 78.746 0 0-0.034 0-393.796 0-393.83 0 0-78.746 0-78.746 0 0 0.034 0 393.796 0 393.83zM590.78 644.915c0 0 78.746 0 78.746 0 0-0.034 0-393.796 0-393.83 0 0-78.746 0-78.746 0 0 0.034 0 393.796 0 393.83z" />
<glyph unicode="&#xe943;" glyph-name="periodico" d="M78.78 93.525c0 0 39.39-39.356 39.39-39.356s78.746 0 78.746 0c0 0 0 392.977 0 669.559-39.39-0.034-78.746-0.034-118.135-0.034 0-0.068 0-630.067 0-630.17zM275.695 841.83c0-0.068 0-787.593 0-787.661 0.068 0 669.457 0 669.525 0 0 0.068 0 787.593 0 787.661-0.068 0-669.457 0-669.525 0zM196.915 802.714c-0.99 45.602 0 117.897 0 117.897 0.102 0 827.017 0 827.085 0 0-0.068 0-945.152 0-945.22-0.068 0-945.152 0-945.22 0 0 0-78.78 78.78-78.78 78.78 0 0.068-0.034 748.237 0 748.305 0 0 131.311-1.468 196.915 0.239zM866.475 448c-0.068 0-511.966 0-512 0 0 0.034 0 315.051 0 315.085 0.034 0 511.932 0 512 0 0-0.034 0-315.051 0-315.085zM787.695 526.78c0 0 0 157.525 0 157.525-0.034 0-354.441 0-354.475 0 0 0 0-157.525 0-157.525 0.034 0 354.441 0 354.475 0zM354.475 369.22c0.034 0 511.932 0 512 0 0 0 0-78.746 0-78.746-0.068 0-511.966 0-512 0 0 0 0 78.746 0 78.746zM354.475 211.695c0.034 0 511.932 0 512 0 0 0 0-78.78 0-78.78-0.068 0-511.966 0-512 0 0 0 0 78.78 0 78.78z" />
<glyph unicode="&#xe944;" glyph-name="pintura" d="M853.333 917.333c0 0 0-128 0-128s170.667 0 170.667 0c0-0.034 0-383.966 0-384-0.034 0-554.633 0-554.667 0 0 0 0-85.333 0-85.333s42.667 0 42.667 0c0-0.034 0-341.299 0-341.333 0 0-170.667 0-170.667 0 0 0.034 0 341.299 0 341.333 0 0 42.667 0 42.667 0s0 170.667 0 170.667c0.034 0 554.633 0 554.667 0 0 0 0 213.299 0 213.333 0 0-85.333 0-85.333 0s0-85.333 0-85.333c-0.068 0-853.265 0-853.333 0 0 0.034 0 298.667 0 298.667 0.068 0 853.265 0 853.333 0zM85.333 832c0 0 0-128 0-128 0.102 0 682.564 0 682.667 0 0 0 0 128 0 128-0.102 0-682.564 0-682.667 0z" />
<glyph unicode="&#xe945;" glyph-name="portatil" d="M393.83 211.695c0 0 0-78.78 0-78.78 0.068 0 275.695 0 275.695 0s0 78.78 0 78.78c0 0-275.627 0-275.695 0zM0 251.085c0 0 0-157.559 0-157.559 0.102 0 1023.898 0 1024 0 0 0 0 157.559 0 157.559s-118.17 0-118.17 0c0 0.034 0 551.322 0 551.39-0.068 0-787.593 0-787.661 0 0-0.068 0-551.356 0.034-551.39-0.034 0-118.204 0-118.204 0zM827.085 251.085c-0.102 0-630.067 0-630.17 0 0 0.034 0 472.576 0 472.61 0.102 0 630.067 0 630.17 0 0-0.034 0-472.576 0-472.61z" />
<glyph unicode="&#xe946;" glyph-name="pregunta" d="M531.695-64c267.23 6.178 492.305 222.891 492.305 512s-225.075 505.822-492.305 512c-277.709 6.417-531.695-211.558-531.695-512s253.986-518.417 531.695-512zM512 14.78c-230.571 0-433.22 183.842-433.22 433.22s202.65 433.22 433.22 433.22c230.571 0 433.22-183.842 433.22-433.22s-202.65-433.22-433.22-433.22zM315.085 723.695c0.034 0 393.796 0 393.83 0 0-0.034 0-236.271 0-236.305 0 0-78.746-78.78-78.746-78.78s-78.78 0-78.78 0c0 0 0-78.78 0-78.78s-78.78 0-78.78 0c0 0 0 157.559 0 157.559s118.17 0 118.17 0c0 0 39.39 39.287 39.39 39.287 0 0.068 0 118.238 0 118.238-0.068 0-315.051 0-315.085 0 0 0 0 78.78 0 78.78zM472.61 251.085c0 0 0-78.78 0-78.78s78.78 0 78.78 0c0 0 0 78.78 0 78.78s-78.78 0-78.78 0z" />
<glyph unicode="&#xe947;" glyph-name="rehacer" d="M134.827 587.127c109.363 177.664 340.924 232.755 518.588 123.46-44.305-71.919-109.875-178.415-109.875-178.415 0.034 0 416.905 38.263 416.939 38.263 0 0.034-153.498 389.53-153.498 389.564 0 0-73.762-119.808-109.705-178.108-217.156 133.632-500.122 66.287-633.754-150.869-133.666-217.122-66.458-500.156 150.699-633.685 98.679-60.655 239.753-78.473 315.87-61.338 0 0.239-10.377 79.462-10.377 79.599-93.901-16.043-179.746 2.526-261.564 53.043-177.459 109.636-232.653 340.821-123.324 518.485z" />
<glyph unicode="&#xe948;" glyph-name="reloj" d="M472.61 802.475c0 0 78.78 0 78.78 0 0-0.068 0-315.051 0-315.085 0.034 0 196.915 0 196.915 0s0-78.78 0-78.78c-0.034 0-275.661 0-275.695 0 0 0.034 0 393.796 0 393.865zM512-64c283.375 0 512 228.625 512 512s-228.625 512-512 512c-283.375 0-512-228.625-512-512s228.625-512 512-512zM512 14.78c-251.802 0-433.22 204.834-433.22 433.22s181.419 433.22 433.22 433.22c251.802 0 433.22-204.834 433.22-433.22s-181.419-433.22-433.22-433.22z" />
<glyph unicode="&#xe949;" glyph-name="reproducir" d="M531.695-64c267.23 6.178 492.305 222.891 492.305 512s-225.075 505.822-492.305 512c-277.709 6.417-531.695-211.558-531.695-512s253.986-518.417 531.695-512zM512 14.78c-230.571 0-433.22 183.842-433.22 433.22s202.65 433.22 433.22 433.22c230.571 0 433.22-183.842 433.22-433.22s-202.65-433.22-433.22-433.22zM393.83 251.085c0 0.034 0 393.796 0 393.83 0.068-0.034 315.051-196.881 315.085-196.915-0.034-0.034-315.017-196.881-315.085-196.915z" />
<glyph unicode="&#xe94a;" glyph-name="salir" d="M930.918 773.803c0 0 0 186.197 0 186.197-0.102 0-930.816 0-930.918 0 0-0.102 0-1023.898 0-1024 0.102 0 930.816 0 930.918 0 0 0 0 186.197 0 186.197s-93.116 0-93.116 0c0 0 0-93.116 0-93.116-0.068 0-744.619 0-744.721 0 0 0.102 0 837.734 0 837.837 0.102 0 744.653 0 744.721 0 0 0 0-93.116 0-93.116s93.116 0 93.116 0zM884.361 494.558c0 0-186.163 186.163-186.163 186.163s0 93.082 0 93.082c0.034-0.034 325.769-325.769 325.803-325.803-0.034-0.034-325.769-325.769-325.803-325.803 0 0 0 93.082 0 93.082s186.163 186.163 186.163 186.163c-0.034 0-698.095 0-698.163 0 0 0 0 93.116 0 93.116s698.129 0 698.163 0z" />
<glyph unicode="&#xe94b;" glyph-name="subir" d="M809.472 489.984c0-26.214 0-52.429 0-78.643 0 0 181.043 0 181.077 0 0 0 98.099 163.089-18.33 288.973-75.981 82.193-184.934 38.571-184.969 38.571-0.034 0.034-22.665 190.635-186.743 221.116-163.499 30.379-245.794-136.567-245.794-136.567-0.034 0-73.762 39.185-137.387 2.628-67.721-38.81-70.315-128.137-70.315-128.171-0.034 0-71.236-0.512-109.875-59.665-70.11-107.349-3.686-226.85-3.686-226.884 0.034 0 197.359 0 197.393 0 0 26.214 0 52.429 0 78.643 0 0-133.12-0.171-133.12-0.171s-26.624 55.159 8.704 98.27c40.687 49.664 109.568 30.106 109.568 30.106 0 0.034-26.829 95.334 36.625 136.329 63.147 40.858 138.786-22.323 138.786-22.323 0.034 0.034 57.037 174.49 197.393 149.060 157.867-28.638 142.916-238.626 142.916-238.66 0.034 0 107.383 76.39 187.836-0.41 65.263-62.327 13.21-151.825 13.21-151.825-0.034 0-123.29-0.375-123.29-0.375zM471.586 477.321c0 0-186.436-186.47-186.436-186.47s-93.184 0-93.184 0c0.034 0.034 326.212 326.246 326.246 326.281 0.034-0.034 326.246-326.246 326.281-326.281 0 0-93.218 0-93.218 0s-186.436 186.47-186.436 186.47c0-0.068 0-541.252 0-541.321 0 0-93.252 0-93.252 0s0 541.252 0 541.321z" />
<glyph unicode="&#xe94c;" glyph-name="tachuela" d="M699.87 824.115c-0.068-0.068-500.804-251.733-500.873-251.733-0.034 0-62.805 62.532-62.805 62.532s-62.532-62.771-62.532-62.805c0 0 251.187-250.163 251.187-250.163-0.034-0.034-312.695-313.993-312.73-314.027 0.034 0 62.805-62.532 62.805-62.532 0.068 0.034 312.695 313.958 312.764 314.027-0.034-0.068 251.153-250.163 251.187-250.197 0 0 62.532 62.805 62.532 62.805s-62.771 62.532-62.771 62.532c0 0.068 249.617 501.828 249.617 501.931 0-0.034 62.839-62.532 62.839-62.566 0 0.034 62.532 62.805 62.532 62.805-0.034 0.034-313.993 312.695-314.027 312.73 0 0-62.532-62.805-62.532-62.805s62.771-62.532 62.805-62.532zM825.481 699.017c-0.034-0.034-249.617-501.862-249.685-501.931-0.034 0.068-313.958 312.695-314.027 312.764 0.068 0 500.838 251.665 500.907 251.699 0 0 62.805-62.532 62.805-62.532z" />
<glyph unicode="&#xe94d;" glyph-name="targeta" d="M1024 93.525c0 0.102 0 708.847 0 708.949-0.102 0-1023.898 0-1024 0 0-0.102 0-708.847 0-708.949 0.102 0 1023.898 0 1024 0zM78.78 723.695c0.068 0 866.372 0 866.441 0 0 0 0-106.633 0-157.628-288.802 0-577.638 0-866.441 0 0 0 0 157.628 0 157.628zM945.22 172.305c-0.068 0-866.372 0-866.441 0 0 0.034 0 209.988 0 315.085 288.802-0.068 577.638-0.171 866.441-0.205 0-0.034 0-314.846 0-314.88zM551.39 251.085c0 0 0 157.525 0 157.525s-78.78 0-78.78 0c0 0 0-157.525 0-157.525s78.78 0 78.78 0zM708.915 251.085c0 0 0 157.525 0 157.525s-78.746 0-78.746 0c0 0 0-157.525 0-157.525s78.746 0 78.746 0zM866.475 251.085c0 0 0 157.525 0 157.525s-78.78 0-78.78 0c0 0 0-157.525 0-157.525s78.78 0 78.78 0z" />
<glyph unicode="&#xe94e;" glyph-name="telefono" d="M375.125 304.811c108.237-115.2 247.979-171.418 248.013-171.452 0 0.034 63.727 136.363 134.246 155.682 1.604 0.444 182.886-73.557 266.615-268.971 0.819-1.911-122.982-109.363-365.568-65.877-185.754 33.28-385.946 245.146-385.98 245.146 0.034-0.102-212.070 194.765-254.908 377.924-58.027 248.115 38.195 382.737 40.175 381.952 198.69-74.82 276.617-256.649 276.275-258.287-14.473-71.578-141.449-148.617-141.449-148.685 0.034 0 61.781-140.459 182.579-247.433z" />
<glyph unicode="&#xe94f;" glyph-name="tiquete" d="M193.126 202.718c0.034 0 73.591-73.557 73.591-73.557 0-0.034-49.050-49.084-49.050-49.084s122.607-122.641 122.607-122.641c0.102 0.068 662.221 662.187 662.289 662.221-0.034 0.034-122.675 122.675-122.675 122.675s-49.050-49.050-49.050-49.050c0 0-73.557 73.557-73.557 73.557s49.050 49.050 49.050 49.050c-0.034 0.034-122.641 122.641-122.641 122.675-0.068-0.102-662.187-662.187-662.221-662.255 0 0 122.607-122.641 122.607-122.641s49.050 49.050 49.050 49.050zM193.126 300.817c0 0-49.050-49.050-49.050-49.050s-24.542 24.508-24.542 24.508c0.034 0.068 343.347 343.381 343.381 343.415 0 0 24.542-24.542 24.542-24.542 0.034 0 49.050 49.050 49.084 49.050 0 0-24.542 24.542-24.542 24.542 0 0.034 171.691 171.691 171.691 171.691s24.508-24.542 24.508-24.542c0 0-49.050-49.050-49.050-49.050 0.034 0 171.691-171.657 171.691-171.691 0 0 49.050 49.050 49.050 49.050s24.542-24.542 24.542-24.542c0 0-171.691-171.657-171.691-171.691 0 0-24.508 24.542-24.508 24.542-0.034 0-49.050-49.050-49.084-49.050 0 0 24.508-24.542 24.542-24.542-0.068-0.034-343.381-343.347-343.381-343.381 0 0-24.542 24.542-24.542 24.542s49.050 49.015 49.050 49.050c0 0-171.657 171.691-171.691 171.691zM512 570.641c0 0 47.445 47.479 47.479 47.479 0-0.034 47.445-47.479 47.445-47.479s-47.445-47.479-47.479-47.479c0 0-47.445 47.479-47.445 47.479zM585.591 497.015c-0.034 0.034 47.479 47.479 47.479 47.479s47.479-47.445 47.479-47.479c0 0-47.479-47.445-47.479-47.445s-47.479 47.445-47.479 47.445z" />
<glyph unicode="&#xe950;" glyph-name="ubicacion" d="M808.482 449.092c28.228 48.845 44.817 107.247 44.817 169.574 0 188.928-152.405 341.333-341.333 341.333s-341.265-152.405-341.265-341.333c0-62.054 16.418-120.183 44.749-169.574 98.85-171.008 296.516-513.024 296.516-513.092 0.068 0.068 197.7 342.084 296.516 513.092zM511.966 874.633c141.722 0 256.034-114.278 256.034-255.966s-114.313-255.966-256.034-255.966c-141.653 0-255.966 114.278-255.966 255.966s114.313 255.966 255.966 255.966z" />
<glyph unicode="&#xe951;" glyph-name="usuario" d="M509.611 445.713c142.302 0 257.126 114.825 257.126 257.161 0 142.302-114.825 257.126-257.126 257.126-142.336 0-257.161-114.825-257.161-257.126 0-142.336 114.825-257.161 257.161-257.161zM509.611 531.456c-94.891 0-171.418 76.527-171.418 171.418s76.527 171.418 171.418 171.418c94.857 0 171.418-76.527 171.418-171.418s-76.561-171.418-171.418-171.418zM811.998-64c0.034 0 57.173 0 85.709 0-2.219 23.791-5.291 47.479-9.216 71.578-3.857 23.552-8.567 46.831-14.131 69.769-5.461 22.562-11.742 44.749-19.183 66.935-7.441 22.528-15.804 44.339-24.201 63.078-8.875 19.934-18.5 39.049-29.389 58.061-10.889 18.773-22.733 36.523-34.679 52.087-12.561 16.282-25.975 31.403-39.97 44.954-14.37 13.756-29.594 26.146-45.397 36.796-16.043 10.786-32.905 20.002-50.927 27.648-17.818 7.543-36.625 13.38-56.422 17.34-19.763 3.925-40.516 6.042-62.191 6.042-21.436 0-41.95-2.014-62.157-6.042-19.695-3.925-38.502-9.694-56.457-17.34-17.681-7.441-34.475-16.589-50.893-27.648-16.657-11.093-32.29-23.893-45.363-36.796-14.029-13.585-27.136-28.399-40.004-44.954-12.663-16.589-24.474-34.372-34.645-52.087-10.718-18.603-20.548-38.161-29.423-58.061-8.943-20.446-17.033-41.643-24.201-63.078-7.202-21.675-13.551-43.93-19.149-66.935-5.53-22.801-10.24-46.114-14.165-69.769-3.891-23.586-6.963-47.548-9.25-71.578 0.034 0 57.173 0 85.709 0 2.321 21.982 5.291 43.554 8.841 64.444 3.584 21.060 7.782 41.438 12.595 61.167 4.881 19.934 10.342 38.912 16.384 57.242 5.973 18.091 12.698 35.84 20.036 52.77 7.236 16.452 15.189 32.495 23.757 47.616 8.192 14.404 17.476 28.706 27.409 41.916 10.138 13.21 20.275 24.986 31.095 35.635 10.069 10.172 22.050 20.173 34.645 28.774 12.425 8.567 25.054 15.565 38.195 21.265 13.38 5.803 27.307 10.24 41.779 13.175 14.848 3.004 29.73 4.54 45.261 4.54 15.701 0 30.822-1.536 45.295-4.54 14.541-3.004 28.467-7.407 41.745-13.175 13.414-5.871 26.112-12.971 38.229-21.265 12.015-8.329 23.62-17.954 34.679-28.774 10.752-10.65 21.197-22.596 31.061-35.635 9.353-12.39 18.671-26.658 27.443-41.916 8.67-15.462 16.486-31.13 23.723-47.616 6.861-15.462 13.79-33.724 20.070-52.77 6.212-18.773 11.605-37.683 16.35-57.242 4.847-19.797 9.045-40.209 12.595-61.167 3.618-21.367 6.519-42.667 8.806-64.444z" />
<glyph unicode="&#xe952;" glyph-name="ver" d="M78.78 446.908c0.034-0.034 191.010-288.905 436.087-287.983 242.825 0.853 430.319 287.949 430.353 287.983-0.034 0.034-187.529 289.655-430.353 290.167-245.623 0.512-436.053-290.133-436.087-290.167zM0 446.908c0.034 0.034 219.409 356.25 512 356.659 292.011 0.375 511.966-356.625 512-356.659-0.034-0.034-219.989-354.475-512-354.475s-511.966 354.441-512 354.475zM512 212.787c130.799 0 236.305 105.506 236.305 236.305s-105.506 236.305-236.305 236.305c-130.799 0-236.305-105.506-236.305-236.305s105.506-236.305 236.305-236.305zM512 291.567c-87.211 0-157.525 70.349-157.525 157.525 0 87.211 70.315 157.559 157.525 157.559s157.525-70.349 157.525-157.559c0-87.177-70.315-157.525-157.525-157.525z" />
<glyph unicode="&#xe953;" glyph-name="video" d="M1024 14.78c-0.102 0-1023.898 0-1024 0 0 0.068 0 866.372 0 866.441 0.102 0 1023.898 0 1024 0 0-0.068 0-866.372 0-866.441zM196.915 644.915c0 0 0 157.559 0 157.559s-118.135 0-118.135 0c0 0 0-157.559 0-157.559s118.135 0 118.135 0zM196.915 329.83c0 0.068 0 236.271 0 236.339 0 0-118.135 0-118.135 0 0-0.068 0-236.271 0-236.339 0 0 118.135 0 118.135 0zM196.915 93.525c0 0 0 157.559 0 157.559s-118.135 0-118.135 0c0 0 0-157.559 0-157.559s118.135 0 118.135 0zM945.22 644.915c0 0 0 157.559 0 157.559s-118.135 0-118.135 0c0 0 0-157.559 0-157.559s118.135 0 118.135 0zM945.22 329.83c0 0.068 0 236.271 0 236.339 0 0-118.135 0-118.135 0 0-0.068 0-236.271 0-236.339 0 0 118.135 0 118.135 0zM945.22 93.525c0 0 0 157.559 0 157.559s-118.135 0-118.135 0c0 0 0-157.559 0-157.559s118.135 0 118.135 0zM275.695 93.525c0.034 0 472.576 0 472.61 0 0 0 0 708.847 0 708.949-0.034 0-472.576 0-472.61 0 0-0.102 0-708.847 0-708.949zM393.83 211.695c0 0.034 0 472.576 0 472.61 0.068-0.034 236.271-236.271 236.339-236.305-0.068-0.034-236.271-236.271-236.339-236.305z" />
</font>
</defs>
</svg>
